<?xml version="1.0" encoding="utf-8"?>
<!-- Generator: Adobe Illustrator 22.0.1, SVG Export Plug-In . SVG Version: 6.00 Build 0)  -->
<svg version="1.1" id="layer" xmlns="http://www.w3.org/2000/svg" xmlns:xlink="http://www.w3.org/1999/xlink" x="0px" y="0px"
	 width="15px" height="125px" viewBox="0 0 15 125" style="enable-background:new 0 0 15 125;" xml:space="preserve">
<g>
	<path d="M8.5,10.1c0.6,0.3,1.1,0.4,1.6,0.4c1.1,0,2.1-0.9,2.1-2.5c0-1.2-0.7-1.9-2.1-1.9c-1,0-2.6,0.5-4.3,1.5c0,0.6,0,1,0,1.4
		c0,0.4,0,0.7,0,1c0,0.6,0,1-0.3,1.4c-0.3,0.3-0.6,0.5-1,0.5c-0.2,0-0.2-0.1-0.4-0.2C4.1,11.7,4,11.6,4,11.5
		c-0.3-0.3-0.8-0.4-1.3-0.6C2.2,10.8,2,10.5,2,10.2c0-0.8,1.6-2,3-2.8c0-1.1,0-2.2,0-3.3C4.3,4.4,3.8,4.4,3.4,4.4
		c-0.5,0-1-0.3-1.3-1l0.2-0.2c0.4,0.4,0.7,0.5,1.1,0.5c0.3,0,0.7-0.1,1.5-0.3c0-0.6,0-1.2,0-1.9c0-0.6-0.3-0.9-1-1l0-0.3
		C4.2,0,4.4,0,4.6,0C5,0,5.4,0.1,5.7,0.3c0.3,0.1,0.4,0.4,0.4,0.6c0,0.1,0,0.3-0.1,0.4C6,1.5,6,1.6,5.9,1.9c0,0.3-0.1,0.7-0.1,1.1
		C6.2,2.9,6.6,2.7,7,2.5s0.5-0.3,0.7-0.3c0.4,0,0.7,0.2,0.7,0.4S8.2,3,7.7,3.2C7,3.4,6.4,3.7,5.8,3.9c0,1.2,0,2.2,0,3.1
		c1.8-1,3.4-1.5,4.6-1.5c1.8,0,2.9,1.1,2.9,2.6c0,1.9-1.4,3.2-2.9,3.2c-0.8,0-1.4-0.3-2.1-0.8L8.5,10.1z M4.9,8.2
		c-1.1,0.7-2,1.5-2,2c0,0.2,0.2,0.3,0.6,0.5c0.3,0.1,0.7,0.2,0.9,0.2c0.3,0,0.5-0.2,0.5-1.2V8.2z M10,2C10.2,2,10.5,2,10.7,2
		c0.8,0,1.5,0.2,2.1,0.6c0.5,0.3,0.8,0.8,0.8,1.1c0,0.2-0.1,0.4-0.3,0.4c-0.1,0-0.2,0-0.3-0.1C12.9,4,12.8,4,12.7,4
		c-0.1,0-0.2,0-0.5,0.1c-0.2,0.1-0.5,0.2-1,0.4L11,4.2c0.4-0.3,0.7-0.5,1-0.7c0.1-0.1,0.2-0.1,0.2-0.2c0-0.1,0-0.1-0.2-0.3
		c-0.4-0.3-1.1-0.6-2-0.6L10,2z"/>
	<path d="M5,18.9v1.8c0,0.4,0,0.9,0,1.2h1.5l0.6-0.8h0.2l0.9,1v0.4H4.9c0,0.5-0.1,1-0.2,1.5c1.9,1,3.1,2.3,3.1,3.2
		c0,0.4-0.2,0.7-0.5,0.7c-0.3,0-0.4-0.3-0.8-1c-0.4-0.9-1-1.7-1.9-2.4c-0.6,2.3-1.9,3.6-3.9,4.7l-0.2-0.3c2-1.4,3.2-3.1,3.5-6.3H2
		l-1.1,0.1l-0.2-0.7L2,22h2c0-0.4,0-0.7,0-1.1v-2H2.7c-0.5,1-1.1,1.8-2,2.7l-0.3-0.2c1.2-1.5,1.7-3.1,2-4.6c0.1-0.4,0.2-0.8,0.2-1.2
		v-0.2l0.1,0c1.3,0.4,1.6,0.6,1.6,0.8c0,0.2-0.1,0.2-0.7,0.3c-0.2,0.7-0.4,1.4-0.7,2h2.9l0.7-0.8h0.2l1,1v0.4H5z M12.9,17.9l0.5-0.6
		h0.2c0.8,0.7,1,0.8,1,1c0,0.2-0.2,0.3-0.5,0.4v5.6l0.1,3.6L14,28.1l-0.9,0v-1.2H9.6v1.3l-0.1,0.1l-0.9,0l0.1-3.8v-5.6
		c0-0.6-0.1-1-0.2-1.5l0.1-0.1c0.5,0.2,0.9,0.5,1.4,0.7H12.9z M9.6,18.5v7.9h3.5v-7.9H9.6z"/>
	<path d="M5,32.5c1.1,0,2.1,0.3,3,1c0.5,0.3,0.7,0.8,0.7,1.1c0,0.3-0.1,0.4-0.4,0.4c-0.2,0-0.4-0.1-0.7-0.1
		c-0.3-0.1-0.5-0.1-0.8-0.1c-0.4,0-1.1,0.1-1.6,0.2c-0.6,0.1-1,0.3-1,0.8c0,0.1,0.1,0.3,0.2,0.5c0.2,0.2,0.3,0.5,0.3,0.7
		c0,0.2-0.1,0.3-0.1,0.6c-0.2,0.5-0.3,1.1-0.3,1.6c0,0.3-0.1,0.6-0.1,1c0,0.2,0,0.2,0.1,0.2c0.1,0,0.1,0,0.3-0.2
		c0.8-0.6,1.6-1,2.4-1.4c0.8-0.4,1.7-0.5,2.4-0.5c2,0,3.2,1.1,3.2,2.7c0,2-2.3,3.4-6,3.6l-0.1-0.4c3.3-0.5,5-1.8,5-3.3
		c0-1.1-0.8-1.9-2.2-1.9c-0.6,0-1.3,0.2-2.1,0.5c-0.7,0.3-1.4,0.8-2.2,1.5c-0.4,0.3-0.5,0.5-0.6,0.8c-0.1,0.3-0.2,0.4-0.4,0.4
		c-0.4,0-0.8-0.6-0.8-1.2c0-0.5,0.1-0.9,0.2-1.3c0.1-0.6,0.2-1.3,0.3-1.9c0-0.4,0.1-0.6,0.1-0.9c0-0.2,0-0.4,0-0.5
		c0-0.1-0.1-0.4-0.1-0.6c0-0.7,0.6-1.1,1.3-1.3c0.5-0.1,1.2-0.3,1.8-0.3C7,34.1,7,34.1,7,34c0,0,0-0.1-0.2-0.2
		c-0.5-0.4-1.3-0.8-2-0.9L5,32.5z"/>
	<path d="M4.7,51.9c0-0.5,0-0.7-0.2-0.9c-0.2-0.2-0.4-0.3-0.8-0.4l0.1-0.3c0.2,0,0.3,0,0.5,0c0.5,0,0.9,0.2,1.2,0.5
		c0.3,0.2,0.3,0.4,0.3,0.6c0,0.1,0,0.2-0.1,0.4c-0.1,0.2-0.1,0.3-0.1,0.6c0,0.5,0,1,0,1.5c0.6-0.1,1.2-0.3,1.9-0.4
		c0.7-0.2,1.4-0.3,2.1-0.5c0.1-0.8,0.1-1.6,0.1-2.3v-0.6c0-0.5-0.3-0.8-0.9-1l0-0.3c0.2,0,0.3,0,0.5,0c0.4,0,0.8,0.1,1.1,0.3
		c0.3,0.2,0.5,0.4,0.5,0.6c0,0.1,0,0.2-0.1,0.4c-0.1,0.2-0.1,0.3-0.1,0.7c0,0.5-0.1,1.2-0.2,2c0.3-0.1,0.6-0.1,0.9-0.2
		c0.5-0.1,0.6-0.2,0.9-0.3c0.2-0.1,0.3-0.1,0.4-0.1c0.1,0,0.3,0,0.7,0.3c0.4,0.2,0.5,0.4,0.5,0.5S13.8,53,13.4,53
		c-0.8,0-1.3,0-2,0.1c-0.3,0-0.7,0.1-1,0.2c-0.1,0.8-0.1,1.6-0.3,2.4c-0.1,0.9-0.3,1.2-0.7,1.4c-0.3,0.2-0.6,0.3-0.9,0.3
		c-0.2,0-0.3-0.1-0.4-0.3c-0.1-0.2-0.3-0.4-1-0.7l0.1-0.3c0.7,0.2,1.1,0.2,1.4,0.2c0.4,0,0.6-0.2,0.7-0.7c0.1-0.7,0.2-1.4,0.2-2.1
		c-0.6,0.1-1.3,0.3-2,0.4c-0.7,0.2-1.3,0.3-2,0.5c0,1.2-0.1,2.2-0.1,2.9c0,0.9,0.1,1.3,0.6,1.5c0.5,0.3,1.1,0.4,1.7,0.4
		c0.8,0,1.4-0.1,2.1-0.2c0.2,0,0.4-0.1,0.6-0.2c0.2-0.1,0.4-0.1,0.6-0.1c0.2,0,0.4,0,0.7,0.2c0.2,0.1,0.3,0.3,0.3,0.5
		c0,0.2-0.1,0.4-0.6,0.5c-0.6,0.2-1.9,0.3-3.1,0.3c-1.1,0-1.9-0.2-2.6-0.5c-0.7-0.4-1-1.1-1-2.2c0-0.7,0-1.6,0-2.8
		c-0.3,0.1-0.7,0.2-1,0.3c-0.4,0.1-0.6,0.2-0.8,0.4c-0.2,0.1-0.4,0.2-0.5,0.2c-0.2,0-0.4-0.1-0.7-0.4c-0.2-0.2-0.5-0.5-0.7-0.9
		L1.3,54c0.5,0.4,0.8,0.5,1.1,0.5c0.2,0,0.5,0,1-0.2c0.4-0.1,0.9-0.2,1.4-0.4V51.9z"/>
</g>
</svg>
