<?xml version="1.0" encoding="utf-8"?>
<!-- Generator: Adobe Illustrator 22.0.1, SVG Export Plug-In . SVG Version: 6.00 Build 0)  -->
<svg version="1.1" id="layer" xmlns="http://www.w3.org/2000/svg" xmlns:xlink="http://www.w3.org/1999/xlink" x="0px" y="0px"
	 width="15px" height="125px" viewBox="0 0 15 125" style="enable-background:new 0 0 15 125;" xml:space="preserve">
<g>
	<path d="M4.4,5.7C3.8,6.7,3.3,7.7,3,8.6C2.9,9,2.9,9.3,2.9,9.7c0,0.1,0,0.3,0,0.5c0,0.1,0,0.3,0,0.5c0,0.3-0.1,0.5-0.4,0.5
		c-0.4,0-0.7-0.6-1-1.5C1.3,8.9,1.2,7.9,1.2,7.1c0-0.7,0.1-1.6,0.3-2.6C1.6,4,1.8,3.3,2,2.6C2,2.4,2.1,2.1,2.1,1.9
		c0-0.3,0-0.6-0.4-1.3L2,0.4C2.3,0.6,2.7,1,2.9,1.3C3,1.5,3.1,1.8,3.1,2c0,0.1,0,0.2-0.1,0.5C3,2.6,2.9,2.8,2.9,3
		C2.7,3.5,2.5,4.1,2.3,4.7C2.1,5.6,2,6.4,2,7.1C2,7.6,2,8,2.1,8.4c0,0.1,0.1,0.1,0.1,0.1s0.1-0.1,0.1-0.1c0.5-1,1.1-2,1.7-2.9
		L4.4,5.7z M8.5,0c0.1,0,0.2,0,0.3,0C9.2,0,9.7,0.1,10,0.4c0.4,0.2,0.6,0.5,0.6,0.7c0,0.1,0,0.2,0,0.3c0,0.1,0,0.3,0,0.5
		c0,0.3,0,0.7,0,1.2C11,3,11.4,2.9,11.6,2.8c0.1-0.1,0.3-0.1,0.4-0.1c0.2,0,0.4,0.1,0.6,0.1c0.2,0.1,0.3,0.2,0.3,0.4
		c0,0.2-0.2,0.4-1.1,0.6c-0.3,0.1-0.7,0.1-1.3,0.2c0,1.5,0,3,0,4.5c0.6,0.2,1,0.4,1.5,0.6c0.7,0.4,1,0.7,1,1.1
		c0,0.3-0.2,0.5-0.4,0.5c-0.2,0-0.3-0.1-0.8-0.4c-0.5-0.4-0.9-0.6-1.4-0.9c-0.2,1.1-1,1.6-2.4,1.6c-1.4,0-2.2-0.6-2.2-1.5
		C5.8,8.6,6.6,8,8.1,8c0.5,0,1,0,1.5,0.1V4C9,4.1,8.5,4.1,8.2,4.1c-1,0-1.6-0.3-2.1-0.9l0.2-0.3C6.9,3.3,7.4,3.4,8,3.4
		c0.4,0,0.9-0.1,1.6-0.2V2.4c0-0.7-0.1-1.2-0.3-1.5C9.2,0.7,8.9,0.5,8.4,0.3L8.5,0z M8,10.2c1,0,1.5-0.5,1.6-1.3
		C9,8.8,8.5,8.6,7.9,8.6C7,8.6,6.4,8.9,6.4,9.4C6.4,9.9,7,10.2,8,10.2z"/>
	<path d="M7.8,25.5c1,0.3,1.6,0.5,2.2,0.8c0.8,0.4,1.1,0.8,1.1,1.1c0,0.3-0.2,0.5-0.4,0.5c-0.2,0-0.3,0-0.8-0.4
		c-0.7-0.5-1.3-0.9-2.1-1.2c0,1.2-0.9,1.9-2.6,1.9c-1.3,0-2.2-0.6-2.2-1.5c0-0.8,1-1.6,2.5-1.6c0.5,0,1,0,1.4,0.1c0-1,0-2.1,0-3.1
		L6,22.4c-0.5,0.1-0.9,0.1-1.1,0.1c-0.5,0-1-0.2-1.6-0.9l0.2-0.3c0.6,0.4,0.9,0.5,1.3,0.5c0.2,0,0.6-0.1,1.1-0.2
		c0.3-0.1,0.7-0.1,1.1-0.3v-2.3c-0.6,0.1-1.2,0.2-1.7,0.3c-0.6,0.1-1,0.1-1.5,0.1c-0.6,0-1.1-0.2-1.7-0.9l0.2-0.3
		c0.7,0.4,1,0.4,1.4,0.4c0.4,0,0.9-0.1,1.5-0.1c0.6-0.1,1.1-0.2,1.8-0.3c0-0.2,0-0.4,0-0.7c0-0.6,0-0.9-0.2-1.2
		c-0.1-0.2-0.4-0.4-0.8-0.6l0.1-0.3c0.1,0,0.2,0,0.2,0c0.4,0,0.9,0.2,1.2,0.4c0.3,0.2,0.6,0.4,0.6,0.7c0,0.1,0,0.2-0.1,0.4
		c0,0.2-0.1,0.5-0.1,1.2c1-0.2,1.5-0.3,1.8-0.4c0.2-0.1,0.4-0.1,0.6-0.1c0.5,0,0.9,0.2,0.9,0.5c0,0.2-0.1,0.3-0.7,0.4
		c-0.9,0.2-1.8,0.3-2.6,0.4c0,0.7,0,1.4,0,2.3c0.6-0.1,1-0.3,1.3-0.4c0.2-0.1,0.4-0.1,0.6-0.1c0.3,0,0.7,0.2,0.7,0.4
		c0,0.2-0.2,0.3-0.5,0.4c-0.6,0.2-1.2,0.3-2.1,0.5L7.8,25.5z M6.9,26.1c-0.5-0.2-1-0.2-1.5-0.2c-1.2,0-1.8,0.4-1.8,0.9
		c0,0.5,0.5,0.8,1.5,0.8c1.2,0,1.8-0.5,1.8-1.4V26.1z"/>
	<path d="M4,32.4c0.1,0,0.2,0,0.4,0c0.5,0,0.9,0.2,1.3,0.4C5.9,32.9,6,33.1,6,33.3c0,0.1,0,0.2-0.1,0.3c0,0.1-0.1,0.3-0.2,0.4
		c-0.2,0.5-0.4,0.9-0.6,1.5C5.7,35.4,6,35.2,6.4,35l0.3-0.2c0.1-0.1,0.2-0.1,0.3-0.1c0.3,0,0.6,0.2,0.6,0.5c0,0.2-0.2,0.4-1,0.7
		c-0.6,0.2-1.2,0.4-1.8,0.6c-0.8,2.2-1.6,4.3-2.6,6.6c-0.4,1-0.5,1.1-0.7,1.3c-0.1,0.1-0.2,0.1-0.3,0.1c-0.2,0-0.4-0.3-0.4-0.8
		c0-0.4,0.1-0.6,0.4-1c0.3-0.4,0.5-0.8,0.7-1.3c0.7-1.4,1.2-2.8,1.9-4.7c-0.5,0.1-1,0.2-1.4,0.2c-0.7,0-1.1-0.2-1.7-0.9L1,35.7
		c0.6,0.4,0.9,0.4,1.4,0.4c0.4,0,1.1-0.1,1.9-0.3c0.2-0.7,0.4-1.3,0.5-1.7c0.1-0.3,0.1-0.5,0.1-0.6c0-0.3-0.2-0.5-0.9-0.7L4,32.4z
		 M6.7,41.7c0.2,0.5,0.5,1,1,1.3c0.6,0.3,1.3,0.4,2.1,0.4c0.5,0,0.9,0,1.5-0.2c0.4-0.1,0.5-0.1,0.6-0.1c0.1,0,0.3,0,0.5,0.1
		c0.2,0,0.5,0.2,0.5,0.5c0,0.3-0.3,0.5-0.7,0.5c-0.4,0.1-1,0.2-1.8,0.2c-1.4,0-2.3-0.2-3.1-0.7c-0.6-0.4-0.9-1-0.9-1.8L6.7,41.7z
		 M9.2,39c0.5-0.5,1-0.8,1.5-1.2c0.1-0.1,0.2-0.1,0.2-0.2s0-0.1-0.1-0.1c-0.1-0.1-0.4-0.1-0.7-0.1c-0.7,0-1.4,0.1-2.3,0.5l-0.2-0.3
		c0.6-0.6,1.7-1,2.7-1c1.2,0,2,0.5,2,1c0,0.2-0.2,0.4-0.5,0.4c-0.3,0.1-0.5,0.1-0.8,0.3c-0.5,0.3-1,0.5-1.6,0.9L9.2,39z M9.7,33
		c1.7,0.6,2.3,1.2,2.3,1.7c0,0.3-0.2,0.5-0.5,0.5c-0.3,0-0.4-0.1-0.7-0.7c-0.3-0.5-0.8-0.9-1.3-1.3L9.7,33z M11,31.9
		c1.8,0.4,2.5,1,2.5,1.5c0,0.3-0.2,0.5-0.5,0.5c-0.2,0-0.3-0.1-0.7-0.6c-0.4-0.5-0.9-0.8-1.4-1.1L11,31.9z"/>
	<path d="M7.4,59.7c2.6-0.9,4.4-2.5,4.4-5.1c0-2.3-1.9-4-4.5-4c-0.3,0-0.7,0-1.1,0.1c0.3,0.2,0.5,0.5,0.7,0.7
		c0.2,0.2,0.3,0.4,0.3,0.6c0,0.2-0.1,0.3-0.2,0.5c-0.1,0.1-0.1,0.3-0.3,0.5c-0.8,1.4-1.6,3-2.5,4.7c-0.7,1.2-1.1,1.6-1.6,1.6
		c-0.3,0-0.8-0.3-1.3-1c-0.4-0.6-0.6-1.4-0.6-2.4c0-3.3,3-5.9,6.6-5.9c3.6,0,5.7,2.1,5.7,4.7c0,2.8-2.4,4.9-5.4,5.4L7.4,59.7z
		 M3.4,57.1c0.8-1.5,1.7-3.2,2.4-4.6C6,52.2,6.1,52,6.1,51.8s-0.1-0.5-0.4-1c-2.3,0.6-4.2,2.5-4.2,5c0,0.9,0.3,1.5,0.5,1.9
		c0.2,0.3,0.4,0.4,0.6,0.4C2.8,58.1,3,57.9,3.4,57.1z"/>
	<path d="M2.3,76.2c1.8-0.8,3.3-1.6,4.6-2.8c1.3-1.2,2.2-2.7,3-4.7C10,68.4,10,68.1,10,68C10,68,10,68,9.9,68c-0.2,0-0.5,0-0.8,0
		c-1,0.1-1.8,0.1-2.7,0.2c-1,0.1-1.9,0.2-2.7,0.3c-0.4,0.1-0.5,0.1-0.7,0.2s-0.3,0.2-0.5,0.2c-0.2,0-0.4-0.2-0.7-0.5
		C1.6,68,1.4,67.5,1.4,67l0.3-0.2c0.5,0.6,0.8,0.8,1.2,0.8c0.1,0,0.4,0,0.7,0c1-0.1,1.9-0.2,2.9-0.3c1-0.1,2.1-0.1,3-0.2
		c0.3,0,0.3,0,0.6-0.2c0.2-0.2,0.3-0.2,0.4-0.2c0.1,0,0.3,0.1,0.8,0.4c0.6,0.4,0.7,0.6,0.7,0.8c0,0.2-0.1,0.3-0.4,0.4
		c-0.3,0.1-0.3,0.2-0.6,0.7C10.1,71.1,9,72.8,7.5,74c-1.3,1.2-3,2-5,2.5L2.3,76.2z M10.5,64.8c1.7,0.5,2.3,1.2,2.3,1.7
		c0,0.3-0.2,0.5-0.5,0.5c-0.3,0-0.4-0.1-0.7-0.7c-0.3-0.5-0.8-0.9-1.3-1.3L10.5,64.8z M11.8,63.7c1.8,0.4,2.5,1,2.5,1.5
		c0,0.3-0.2,0.5-0.5,0.5c-0.2,0-0.3-0.1-0.7-0.6c-0.4-0.5-0.9-0.8-1.4-1.1L11.8,63.7z"/>
	<path d="M2.8,81.9c0.5,0,1,0.3,1.3,0.6c0.3,0.2,0.5,0.5,0.5,0.7c0,0.2,0,0.4-0.1,0.6c-0.1,0.3-0.2,0.6-0.2,1c0,1.5,0,3.3,0,5.3
		c0,0.3,0,0.3,0.1,0.3c0.1,0,0.2,0,0.5-0.2c2.4-1,5-2.8,6.6-4.8l0.3,0.3c-1.5,2.4-3.9,4.1-6.6,5.5c-0.4,0.2-0.4,0.2-0.5,0.5
		c-0.1,0.3-0.2,0.4-0.4,0.4c-0.1,0-0.3-0.1-0.7-0.6c-0.4-0.5-0.5-0.6-0.5-0.8c0-0.1,0-0.2,0.2-0.3c0.1-0.1,0.1-0.2,0.1-0.7v-6.1
		c0-0.7-0.2-1-0.7-1.5L2.8,81.9z"/>
	<path d="M2,98.4L2,98.4c1,0,1.9,0.3,2.6,0.8c0.5,0.3,0.8,0.7,0.8,1.2c0,0.4-0.3,0.6-0.5,0.6c-0.2,0-0.5-0.1-0.8-0.6
		c-0.6-0.8-1.2-1.3-2.2-1.7L2,98.4z M12.5,99.4c-0.8,1.5-1.6,2.6-2.7,3.8c-1.1,1.2-2.7,2.4-4.5,3.7c-0.5,0.4-0.6,0.5-0.8,0.7
		s-0.3,0.3-0.4,0.3c-0.2,0-0.6-0.3-0.9-0.6c-0.4-0.4-0.7-0.9-0.8-1.5l0.3-0.2c0.5,0.6,0.8,0.8,1.1,0.8c0.2,0,0.4,0,0.8-0.3
		c1.9-1.2,3.3-2.3,4.6-3.5c1-1,2-2.1,3-3.4L12.5,99.4z"/>
	<path d="M3.8,113.1c0.1,0,0.3,0,0.5,0c0.5,0,1,0.3,1.3,0.5c0.3,0.2,0.4,0.4,0.4,0.5c0,0.1,0,0.2-0.2,0.3c-0.2,0.2-0.2,0.2-0.2,0.4
		c0,0.8,0,1.5,0,2.4c1.4,0.1,2.5,0.4,3.4,0.8c0.8,0.4,1.1,0.8,1.1,1.1c0,0.4-0.2,0.6-0.5,0.6c-0.2,0-0.4-0.1-0.9-0.5
		c-0.8-0.7-1.8-1.2-3.1-1.6c0,1.8,0,3.6,0,6.1c0,0.6-0.2,0.8-0.4,0.8c-0.2,0-0.4-0.2-0.6-0.5c-0.1-0.3-0.2-0.6-0.2-0.8
		c0-0.1,0-0.3,0.1-0.6c0.1-0.2,0.1-0.4,0.1-0.8c0-0.8,0-1.7,0-2.6v-1.8c0-0.9,0-1.8,0-2.7c0-0.8-0.1-1-1-1.3L3.8,113.1z M8.2,113.4
		c1.7,0.5,2.3,1.2,2.3,1.7c0,0.3-0.2,0.5-0.5,0.5c-0.3,0-0.4-0.2-0.7-0.7C9,114.4,8.5,114,8,113.6L8.2,113.4z M9.5,112.2
		c1.8,0.4,2.5,1,2.5,1.5c0,0.3-0.2,0.5-0.5,0.5c-0.2,0-0.3-0.1-0.7-0.6c-0.4-0.5-0.9-0.8-1.4-1.1L9.5,112.2z"/>
</g>
</svg>
