<?xml version="1.0" encoding="utf-8"?>
<!-- Generator: Adobe Illustrator 22.0.1, SVG Export Plug-In . SVG Version: 6.00 Build 0)  -->
<svg version="1.1" id="layer" xmlns="http://www.w3.org/2000/svg" xmlns:xlink="http://www.w3.org/1999/xlink" x="0px" y="0px"
	 width="15px" height="125px" viewBox="0 0 15 125" style="enable-background:new 0 0 15 125;" xml:space="preserve">
<g>
	<path d="M6.8,2.6c1.3,0.5,1.6,0.7,1.6,0.9c0,0.1-0.1,0.2-0.4,0.2H7.8c1.8,1.9,3.8,3,6.5,3.6l0,0.3c-0.5,0-0.8,0.3-1,0.8
		c-2.3-1-4.3-2.3-6-4.6c-1.9,2.5-4.2,4-7,4.9L0.2,8.4c2.6-1.2,4.6-2.8,5.9-4.6c0.3-0.4,0.5-0.7,0.6-1.1L6.8,2.6z M9.1,2H5.5v0l0,1.2
		L5.4,3.4l-0.9,0l0-1.3V2H1.9l-1,0.1L0.7,1.4l1.2,0.1h2.7V1.2c0-0.5,0-0.8-0.2-1.1L4.5,0c1.2,0.2,1.6,0.3,1.6,0.5
		c0,0.1-0.1,0.2-0.6,0.3v0.6h3.6V1.2c0-0.5,0-0.8-0.1-1.1L9,0c1.3,0.2,1.6,0.3,1.6,0.5c0,0.1-0.1,0.2-0.6,0.3v0.6h2.2L13,0.6h0.2
		l1,1V2H10v0l0,1.2L9.9,3.4L9,3.4L9.1,2L9.1,2z M4.5,9.7c1.2,0.5,1.4,0.7,1.4,0.9c0,0.1-0.1,0.2-0.5,0.2c-0.1,0-0.2,0-0.3,0
		c-1.1,1.2-2.2,2-3.6,2.6l-0.2-0.3c1.2-0.8,2.1-1.6,2.8-2.6c0.2-0.3,0.3-0.5,0.3-0.8L4.5,9.7z M6.9,8.8H4L3,8.9L2.8,8.2L4,8.3h2.8
		V7.2c0-0.5,0-0.8-0.2-1.2l0.1-0.1c1.3,0.2,1.7,0.3,1.7,0.6c0,0.2-0.1,0.2-0.6,0.4v1.5H10l0.7-0.8h0.2l1,0.9v0.4h-4v2.4l0.1,2.4
		l-0.1,0.1l-1,0l0.1-2.5V8.8z M9.3,9.7c2.3,0.8,3.5,1.9,3.5,2.8c0,0.4-0.2,0.6-0.5,0.6c-0.3,0-0.4-0.2-0.9-0.9
		c-0.5-0.7-1.3-1.5-2.3-2.2L9.3,9.7z"/>
	<path d="M8.2,25.4L8.1,25c2.5-0.3,4.7-1.2,4.7-3.2c0-1.3-0.9-2.1-2.2-2.1c-0.9,0-1.9,0.4-3.1,1.1c-0.5,0.3-1,0.6-1.2,0.7
		c-0.2,0.2-0.3,0.3-0.4,0.4c-0.1,0.1-0.3,0.2-0.4,0.2c-0.2,0-0.4-0.1-0.6-0.3c-0.3-0.3-0.6-0.7-0.6-1.1l0.3-0.2
		c0.2,0.3,0.5,0.5,0.7,0.5c0.1,0,0.3-0.1,0.6-0.2c0.5-0.2,0.8-0.4,1.2-0.6c1.4-0.7,2.4-1,3.5-1c1.9,0,3.2,1.2,3.2,2.7
		c0,2.5-2.6,3.6-5.5,3.6H8.2z"/>
	<path d="M4.8,36.7c-0.5,0.9-1,2-1.3,2.9c-0.1,0.4-0.1,0.7-0.1,1c0,0.1,0,0.3,0,0.5c0,0.1,0,0.3,0,0.5c0,0.3-0.1,0.5-0.4,0.5
		c-0.4,0-0.7-0.6-1-1.5c-0.3-0.8-0.4-1.8-0.4-2.5c0-0.7,0.1-1.6,0.3-2.6C2,35,2.2,34.3,2.4,33.6c0.1-0.3,0.1-0.6,0.1-0.7
		c0-0.3,0-0.6-0.4-1.3l0.3-0.2c0.4,0.2,0.7,0.6,0.9,0.9c0.2,0.2,0.3,0.5,0.3,0.7c0,0.1,0,0.2-0.1,0.5c0,0.1-0.1,0.3-0.2,0.5
		c-0.2,0.5-0.4,1.2-0.5,1.7c-0.2,0.9-0.4,1.7-0.4,2.4c0,0.4,0,0.9,0.2,1.3c0,0.1,0.1,0.1,0.1,0.1c0,0,0.1-0.1,0.1-0.1
		c0.5-1,1-2,1.7-2.9L4.8,36.7z M8.7,31c0.1,0,0.2,0,0.3,0c0.4,0,0.9,0.2,1.2,0.4c0.4,0.2,0.6,0.5,0.6,0.7c0,0.1,0,0.2,0,0.3
		c0,0.1,0,0.3,0,0.5c0,0.3,0,0.7,0,1.2c0.5-0.1,0.9-0.2,1.1-0.3c0.1-0.1,0.3-0.1,0.4-0.1c0.2,0,0.4,0.1,0.6,0.1
		c0.2,0.1,0.3,0.2,0.3,0.4c0,0.2-0.2,0.4-1.1,0.6c-0.3,0.1-0.7,0.1-1.3,0.2c0,1.5,0,3,0,4.5c0.6,0.2,1,0.4,1.5,0.6
		c0.7,0.4,1,0.7,1,1.1c0,0.3-0.2,0.5-0.4,0.5c-0.2,0-0.3-0.1-0.8-0.4c-0.5-0.4-0.9-0.6-1.4-0.9c-0.2,1.1-1,1.6-2.4,1.6
		c-1.4,0-2.2-0.6-2.2-1.5C6,39.6,6.8,39,8.3,39c0.5,0,1,0,1.5,0.1V35c-0.7,0.1-1.1,0.1-1.4,0.1c-1,0-1.6-0.3-2.1-0.9l0.2-0.3
		c0.6,0.3,1.1,0.5,1.7,0.5c0.4,0,0.9-0.1,1.6-0.2v-0.8c0-0.7-0.1-1.2-0.3-1.5c-0.2-0.3-0.5-0.5-0.9-0.6L8.7,31z M8.2,41.2
		c1,0,1.5-0.5,1.6-1.3c-0.6-0.2-1.2-0.3-1.7-0.3c-0.9,0-1.5,0.3-1.5,0.8C6.5,40.9,7.2,41.2,8.2,41.2z M14.8,31.1
		c0,0.9-0.7,1.6-1.6,1.6s-1.6-0.7-1.6-1.6c0-0.9,0.7-1.6,1.6-1.6S14.8,30.2,14.8,31.1z M12.2,31.1c0,0.6,0.5,1,1,1c0.6,0,1-0.5,1-1
		c0-0.6-0.5-1-1-1C12.6,30.1,12.2,30.6,12.2,31.1z"/>
	<path d="M12.1,46.9l0.5-0.6h0.2c0.9,0.6,1.1,0.8,1.1,1c0,0.1-0.2,0.3-0.6,0.4v8.1l0.1,3.7l-0.2,0.2l-0.9,0v-0.8h-10v0.7l-0.1,0.2
		l-0.9,0l0.1-3.9v-8c0-0.6-0.1-1-0.2-1.5l0.1-0.1c0.5,0.2,0.9,0.4,1.3,0.7H12.1z M2.4,47.4v11h10v-11H2.4z M10.1,48.5
		c1.2,0.5,1.5,0.7,1.5,0.9c0,0.2-0.2,0.2-0.6,0.2h-0.1c-0.6,1.6-1.5,3.1-2.6,4.4c1.5,0.8,2.4,1.7,2.4,2.2c0,0.4-0.2,0.6-0.4,0.6
		c-0.3,0-0.4-0.2-0.9-0.6c-0.6-0.6-1.1-1.1-1.7-1.5c-1.2,1.2-2.6,2.1-4.2,2.9l-0.3-0.3c1.3-0.8,2.6-1.9,3.7-3.1
		c-0.8-0.5-1.7-0.9-2.8-1.4l0.1-0.3c1.2,0.3,2.3,0.8,3.2,1.2c1-1.2,1.8-2.5,2.3-3.9c0.2-0.4,0.2-0.8,0.2-1.1L10.1,48.5z M3.8,48.8
		C5,49.5,5.5,50.4,5.5,51c0,0.4-0.2,0.6-0.5,0.6c-0.3,0-0.4-0.1-0.5-0.7C4.4,50.4,4,49.7,3.5,49L3.8,48.8z M6.4,48.3
		c1.2,0.9,1.7,1.8,1.7,2.4c0,0.4-0.2,0.7-0.5,0.7c-0.3,0-0.4-0.1-0.5-0.8c-0.1-0.7-0.4-1.4-0.9-2.1L6.4,48.3z"/>
	<path d="M2.8,62.4c1.1,0.4,1.3,0.6,1.3,0.8c0,0.2-0.1,0.2-0.6,0.3c0,0.1,0,0.1-0.1,0.2c1.3,0.6,2.1,1.4,2.1,2
		c0,0.4-0.2,0.6-0.5,0.6c-0.2,0-0.3-0.1-0.5-0.4C4.2,65,3.8,64.5,3.2,64c-0.7,1.4-1.4,2.2-2.7,3.3L0.2,67c1.1-1.2,1.7-2.2,2.1-3.4
		c0.2-0.4,0.3-0.8,0.3-1.1L2.8,62.4z M3.4,70v4.4c0.6-0.1,1.3-0.3,2.2-0.5l0.1,0.3c-1.4,0.5-2.7,1-3.9,1.3c-0.1,0.5-0.1,0.6-0.3,0.6
		c-0.1,0-0.4-0.3-1-1.4l0.1-0.1h0.2c0.5,0,0.8,0,1.2-0.1c0.2,0,0.5-0.1,0.7-0.1V70H1.7l-1,0.1l-0.2-0.7l1.2,0.1h0.8v-1.8H2.2
		l-0.9,0.1L1.1,67l1.1,0.1h1.4l0.5-0.7h0.2l0.8,0.8v0.4H3.4v1.8H4l0.5-0.7h0.2l0.7,0.8V70H3.4z M0.9,70.9c0.8,0.8,1.2,1.5,1.2,2.2
		c0,0.4-0.2,0.7-0.4,0.7c-0.2,0-0.4-0.1-0.5-0.7c-0.1-0.7-0.2-1.3-0.6-2L0.9,70.9z M4.5,70.7c1,0.5,1.2,0.6,1.2,0.8
		c0,0.2-0.1,0.2-0.6,0.3c-0.3,0.7-0.5,1.2-1,2l-0.3-0.2c0.3-0.9,0.4-1.4,0.5-2c0.1-0.3,0.1-0.6,0.1-0.8L4.5,70.7z M12,71.1l0.5-0.6
		h0.2c0.7,0.6,0.9,0.8,0.9,0.9c0,0.1-0.1,0.2-0.5,0.4v3.4h0.1l0.4-0.7h0.2l0.7,0.9v0.4H6l-1.1,0.1l-0.2-0.7L6,75.3h0.3v-3.2
		c0-0.6,0-1-0.2-1.4l0.1-0.1c0.4,0.2,0.8,0.3,1.1,0.6H12z M8.7,63.4l0.5-0.7h0.2l0.8,0.8v0.4H8.4v1.4h0.5l0.4-0.4h0.2
		c0.6,0.5,0.7,0.6,0.7,0.7c0,0.1-0.1,0.2-0.4,0.3v0.7l0.1,1.4l-0.2,0.2l-0.7,0v-0.4H8.4v1.6h0.5l0.5-0.6h0.2l0.8,0.8v0.4H6.6v0.3
		l-0.2,0.2l-0.7,0l0.1-2.4v-3.5c0-0.7,0-1-0.2-1.5l0.1-0.1c0.4,0.2,0.8,0.4,1.1,0.6H8.7z M6.6,65.3h1v-1.4h-1V65.3z M6.6,65.8v1.5
		h2.3v-1.5H6.6z M7.6,67.7h-1v1.6h1V67.7z M7.2,71.7v3.7h1.1v-3.7H7.2z M9.1,71.7v3.7h1.1v-3.7H9.1z M12.8,65.3l0.5-0.7h0.2l0.8,0.8
		v0.4h-3.1c-0.3,0.6-0.6,1.2-1,1.8l-0.3-0.2c0.6-1.2,0.8-2.3,1-3.7c0-0.2,0-0.4,0-0.5c0-0.2,0-0.3,0-0.4l0.1-0.1
		c1.3,0.3,1.5,0.4,1.5,0.6c0,0.2-0.2,0.2-0.7,0.3c-0.1,0.6-0.3,1.2-0.5,1.7H12.8z M11.6,68h1l0.5-0.7h0.2l0.8,0.8v0.4h-2.5l-1.1,0.1
		l-0.2-0.7L11.6,68z M11,71.7v3.7h1.2v-3.7H11z"/>
</g>
</svg>
