<?xml version="1.0" encoding="utf-8"?>
<!-- Generator: Adobe Illustrator 22.0.1, SVG Export Plug-In . SVG Version: 6.00 Build 0)  -->
<svg version="1.1" id="layer" xmlns="http://www.w3.org/2000/svg" xmlns:xlink="http://www.w3.org/1999/xlink" x="0px" y="0px"
	 width="15px" height="125px" viewBox="0 0 15 125" style="enable-background:new 0 0 15 125;" xml:space="preserve">
<g>
	<path d="M5,3.6v1.8c0,0.4,0,0.9,0,1.2h1.5L7,5.9h0.2l0.9,1v0.4H4.9c0,0.5-0.1,1-0.2,1.5c1.9,1,3.1,2.3,3.1,3.2
		c0,0.4-0.2,0.7-0.5,0.7c-0.3,0-0.4-0.3-0.8-1c-0.4-0.9-1-1.7-1.9-2.4c-0.6,2.3-1.9,3.6-3.9,4.7l-0.2-0.3c2-1.4,3.2-3.1,3.5-6.3h-2
		L0.9,7.3L0.7,6.6l1.2,0.1h2C4,6.3,4,6,4,5.6v-2H2.6c-0.5,1-1.1,1.8-2,2.7L0.4,6c1.2-1.5,1.7-3.1,2-4.6C2.5,1,2.5,0.7,2.5,0.3V0
		l0.1,0C4,0.4,4.3,0.6,4.3,0.8C4.3,1,4.1,1,3.5,1.1c-0.2,0.7-0.4,1.4-0.7,2h2.9l0.7-0.8h0.2l1,1v0.4H5z M12.8,2.6L13.4,2h0.2
		c0.8,0.7,1,0.8,1,1c0,0.1-0.2,0.3-0.5,0.4V9l0.1,3.6L14,12.8l-0.9,0v-1.2H9.5v1.3L9.4,13l-0.9,0l0.1-3.8V3.6c0-0.6-0.1-1-0.2-1.5
		l0.1-0.1c0.5,0.2,0.9,0.5,1.4,0.7H12.8z M9.5,3.1V11H13V3.1H9.5z"/>
	<path d="M6.1,28.7c1,0.3,1.2,0.5,1.2,0.6c0,0.2-0.1,0.2-0.7,0.2c-0.9,1.4-2.8,2.1-5.7,2.1l0-0.3c2.4-0.3,4.1-0.9,4.8-2
		C5.9,29.1,6,28.9,6,28.8L6.1,28.7z M6.1,21.8H4.8v1H6l0.5-0.5h0.2L7.4,23v0.4H2.3v0.5L2.1,24l-0.8,0l0.1-2.2v-2.4
		c0-0.7,0-1-0.2-1.5l0.1-0.1c0.4,0.2,0.7,0.4,1,0.6h3.4l0.6-0.6h0.2l0.8,0.8v0.4H4.8v0.9H6l0.4-0.4h0.2c0.6,0.5,0.8,0.6,0.8,0.7
		c0,0.1-0.1,0.2-0.4,0.3v0.4l0,1.1L6.8,22l-0.7,0V21.8z M2.3,18.8v0.9H4v-0.9H2.3z M6.1,21.3v-1H2.3v1H6.1z M2.3,21.8v1H4v-1H2.3z
		 M10.7,24.1l0.5-0.6h0.2c0.8,0.6,0.9,0.8,0.9,0.9c0,0.1-0.1,0.2-0.5,0.4v1.4l0.1,2.6L11.7,29l-0.8,0v-0.4H9.6v1.3
		c0,0.5,0.1,0.6,1.4,0.6c1.4,0,1.6-0.1,1.8-0.4c0.2-0.3,0.3-0.7,0.5-1.3l0.4,0c0,0.6,0,0.9,0,1.1c0,0.2,0,0.2,0.2,0.3
		c0.2,0.1,0.3,0.2,0.3,0.4c0,0.2-0.2,0.4-0.5,0.5c-0.3,0.1-1,0.2-2.8,0.2c-1.7,0-2.3-0.2-2.2-1.2l0-1v-0.5H4.4V29l-0.2,0.2l-0.8,0
		l0.1-2.6v-1.5c0-0.7,0-1-0.2-1.4l0.1-0.1c0.5,0.2,0.8,0.3,1.2,0.5H10.7z M4.4,24.6v0.8h6.5v-0.8H4.4z M10.9,26.7v-0.8H4.4v0.8H10.9
		z M10.9,28.1v-0.9H4.4v0.9H10.9z M12.6,19.6l0.6-0.8h0.2l0.9,0.9v0.4H9.1c-0.4,0.7-0.9,1.4-1.6,2l-0.3-0.2c0.8-1,1.2-2.1,1.5-3.1
		c0.1-0.4,0.1-0.6,0.1-1l0.1,0c1.2,0.3,1.4,0.5,1.4,0.6s-0.1,0.2-0.6,0.3c-0.1,0.3-0.2,0.6-0.4,1H12.6z M13.9,22.6H9.7l-1,0.1
		L8.4,22L9.7,22h2.5l0.7-0.8H13l0.9,0.9V22.6z"/>
	<path d="M7.1,37.6c1.3,0.5,1.6,0.7,1.6,0.9c0,0.1-0.1,0.2-0.4,0.2H8.1c1.8,1.9,3.8,3,6.5,3.6l0,0.3c-0.5,0-0.8,0.3-1,0.8
		c-2.3-1-4.3-2.3-6-4.6c-1.9,2.5-4.2,4-7,4.9l-0.2-0.3c2.6-1.2,4.6-2.8,5.9-4.6c0.3-0.5,0.5-0.7,0.6-1.1L7.1,37.6z M9.3,37H5.8v0
		l0,1.2l-0.1,0.1l-0.9,0l0-1.3V37H2.2l-1,0.1L1,36.4l1.2,0.1h2.7v-0.3c0-0.5,0-0.8-0.2-1.1L4.8,35c1.2,0.2,1.6,0.3,1.6,0.5
		c0,0.1-0.1,0.2-0.6,0.3v0.6h3.6v-0.3c0-0.5,0-0.8-0.1-1.1L9.3,35c1.3,0.2,1.6,0.3,1.6,0.5c0,0.1-0.1,0.2-0.6,0.3v0.6h2.2l0.7-0.9
		h0.2l1,1V37h-4.2v0l0,1.2l-0.1,0.1l-0.9,0L9.3,37L9.3,37z M4.8,44.7c1.2,0.5,1.4,0.7,1.4,0.9c0,0.1-0.1,0.2-0.5,0.2
		c-0.1,0-0.2,0-0.3,0c-1.1,1.2-2.2,2-3.6,2.6l-0.2-0.3c1.2-0.8,2.1-1.6,2.8-2.6c0.2-0.3,0.3-0.5,0.3-0.8L4.8,44.7z M7.1,43.9H4.3
		L3.2,44l-0.2-0.7l1.2,0.1h2.8v-1.2c0-0.5,0-0.8-0.2-1.2L7,41c1.3,0.2,1.7,0.3,1.7,0.6c0,0.2-0.1,0.2-0.6,0.4v1.5h2.2l0.7-0.8h0.2
		l1,0.9v0.4h-4v2.4l0.1,2.4L8,48.9l-1,0l0.1-2.5V43.9z M9.6,44.8c2.3,0.8,3.5,1.9,3.5,2.8c0,0.4-0.2,0.6-0.5,0.6
		c-0.3,0-0.4-0.2-0.9-0.9c-0.5-0.7-1.3-1.5-2.3-2.2L9.6,44.8z"/>
	<path d="M8.2,62.9c2.6-0.9,4.4-2.5,4.4-5.1c0-2.3-1.9-4-4.5-4c-0.3,0-0.7,0-1.1,0.1c0.3,0.2,0.5,0.5,0.7,0.7C7.9,54.8,8,55,8,55.2
		c0,0.2-0.1,0.3-0.2,0.5c-0.1,0.1-0.1,0.3-0.3,0.5c-0.8,1.4-1.6,3-2.5,4.7c-0.7,1.2-1.1,1.6-1.6,1.6c-0.3,0-0.8-0.3-1.3-1
		c-0.4-0.6-0.6-1.4-0.6-2.4c0-3.3,3-5.9,6.6-5.9c3.6,0,5.7,2.1,5.7,4.7c0,2.8-2.4,4.9-5.4,5.4L8.2,62.9z M4.2,60.4
		c0.8-1.5,1.7-3.2,2.4-4.6c0.2-0.3,0.2-0.5,0.2-0.7s-0.1-0.5-0.4-1c-2.3,0.6-4.2,2.5-4.2,5c0,0.9,0.3,1.5,0.5,1.9
		c0.2,0.3,0.4,0.4,0.6,0.4C3.6,61.3,3.8,61.1,4.2,60.4z"/>
	<path d="M4.6,74L4.6,74c0,1-0.2,1.7-0.7,2.4c-0.4,0.5-0.9,0.8-1.4,0.8c-0.3,0-0.6-0.2-0.6-0.5c0-0.3,0.2-0.6,0.8-0.8
		c0.9-0.4,1.3-0.9,1.6-2L4.6,74z M7.3,72.2c-0.9,0.1-1.9,0.2-2.7,0.3c-0.3,0-0.4,0.1-0.5,0.1c-0.2,0.1-0.3,0.1-0.4,0.1
		c-0.2,0-0.5-0.2-0.7-0.4c-0.2-0.3-0.5-0.7-0.6-1.1L2.7,71c0.4,0.5,0.8,0.7,1.2,0.7c0.1,0,0.3,0,0.6,0c0.8-0.1,1.8-0.2,2.8-0.2
		c0-0.5,0-1.1,0-1.8c0-0.3-0.1-0.5-0.2-0.7c-0.1-0.1-0.3-0.3-0.6-0.3l0.1-0.3c0.1,0,0.3,0,0.5,0c0.3,0,0.7,0.1,1,0.3
		c0.3,0.1,0.6,0.3,0.6,0.5c0,0.1-0.1,0.3-0.3,0.4c-0.2,0.1-0.2,0.2-0.2,0.5c0,0.5,0,1.1,0,1.5c0.8-0.1,1.7-0.1,2.3-0.1
		c0.3,0,0.4-0.1,0.6-0.2c0.2-0.1,0.3-0.1,0.4-0.1c0.2,0,0.6,0.2,0.9,0.4c0.2,0.1,0.3,0.3,0.3,0.5c0,0.2-0.2,0.3-0.4,0.3
		c-0.2,0-0.4,0-0.6,0c-0.2,0-0.5,0-0.8,0c-0.9,0-2,0-2.8,0.1c0,1.7,0,3.4,0,5.1c0,0.2,0,0.4,0,0.6c0,0.2,0,0.3,0,0.5
		c0,0.2-0.1,0.6-0.3,0.8c-0.2,0.3-0.5,0.6-0.8,0.6c-0.2,0-0.3-0.2-0.3-0.5c0-0.3-0.1-0.3-0.3-0.5c-0.3-0.2-0.8-0.4-1.6-0.7l0.1-0.4
		c0.6,0.1,1.1,0.3,1.6,0.4c0.2,0,0.3,0.1,0.4,0.1c0.2,0,0.2-0.1,0.2-0.4V72.2z M10.3,73.6c1,0.4,1.7,1,2.3,1.7
		c0.4,0.5,0.6,0.9,0.6,1.2c0,0.3-0.2,0.6-0.5,0.6c-0.3,0-0.6-0.2-0.9-0.9c-0.4-0.9-1-1.7-1.8-2.4L10.3,73.6z"/>
	<path d="M2.8,85.1L2.8,85.1c1,0,1.9,0.3,2.6,0.8c0.5,0.3,0.8,0.7,0.8,1.2c0,0.4-0.3,0.6-0.5,0.6c-0.2,0-0.5-0.1-0.8-0.6
		c-0.6-0.8-1.2-1.3-2.2-1.7L2.8,85.1z M13.3,86.1c-0.8,1.5-1.6,2.6-2.7,3.8c-1.1,1.2-2.7,2.4-4.5,3.7c-0.5,0.4-0.6,0.5-0.8,0.7
		S5,94.6,4.9,94.6c-0.2,0-0.6-0.3-0.9-0.6c-0.4-0.4-0.7-0.9-0.8-1.5l0.3-0.2c0.5,0.6,0.8,0.8,1.1,0.8c0.2,0,0.4,0,0.8-0.3
		c1.9-1.2,3.3-2.3,4.6-3.5c1-1,2-2.1,3-3.4L13.3,86.1z"/>
	<path d="M4.7,99.8c0.1,0,0.3,0,0.5,0c0.5,0,1,0.3,1.3,0.5c0.3,0.2,0.4,0.4,0.4,0.5c0,0.1,0,0.2-0.2,0.3c-0.2,0.2-0.2,0.2-0.2,0.4
		c0,0.8,0,1.5,0,2.4c1.4,0.1,2.5,0.4,3.4,0.8c0.8,0.4,1.1,0.8,1.1,1.1c0,0.4-0.2,0.6-0.5,0.6c-0.2,0-0.4-0.1-0.9-0.5
		c-0.8-0.7-1.8-1.2-3.1-1.6c0,1.8,0,3.6,0,6.1c0,0.6-0.2,0.8-0.5,0.8c-0.2,0-0.4-0.2-0.6-0.5c-0.1-0.3-0.2-0.6-0.2-0.8
		c0-0.1,0-0.3,0.1-0.6c0.1-0.2,0.1-0.4,0.1-0.8c0-0.8,0-1.7,0-2.6v-1.8c0-0.9,0-1.8,0-2.7c0-0.8-0.1-1-1-1.3L4.7,99.8z"/>
</g>
</svg>
