<?xml version="1.0" encoding="utf-8"?>
<!-- Generator: Adobe Illustrator 22.0.1, SVG Export Plug-In . SVG Version: 6.00 Build 0)  -->
<svg version="1.1" id="layer" xmlns="http://www.w3.org/2000/svg" xmlns:xlink="http://www.w3.org/1999/xlink" x="0px" y="0px"
	 width="15px" height="125px" viewBox="0 0 15 125" style="enable-background:new 0 0 15 125;" xml:space="preserve">
<g>
	<path d="M7,2V1.1c0-0.4,0-0.7-0.2-1L6.9,0c1.3,0.2,1.7,0.2,1.7,0.4c0,0.1-0.1,0.2-0.6,0.4V2h4.1l0.7-0.9h0.2l1.1,1v0.4H2.9V5
		c0,4.2-0.5,6.4-2.2,8.4l-0.3-0.2c1.2-2.1,1.5-3.9,1.5-7.9V3c0-0.6,0-1-0.2-1.5l0.1-0.1C2.2,1.6,2.6,1.8,3.1,2H7z M11.3,13.8v-0.8
		H5.1v0.7l-0.1,0.2l-0.9,0l0.1-2.4V9.7c0-0.7-0.1-1.1-0.2-1.5L4,8.1c0.5,0.2,0.9,0.4,1.3,0.7h2V4.3c0-0.5,0-0.8-0.2-1.2L7.3,3
		C8.7,3.3,9,3.4,9,3.6C9,3.7,8.9,3.8,8.3,4v1.6h3.2l0.7-0.9h0.2l1,1v0.4H8.3v2.7h2.8l0.5-0.5h0.2c0.9,0.6,1,0.8,1,0.9
		c0,0.1-0.1,0.2-0.5,0.4v1.7l0.1,2.3l-0.2,0.2L11.3,13.8z M5.1,12.4h6.2V9.3H5.1V12.4z"/>
	<path d="M3.5,16.8c1.1,0.5,1.3,0.6,1.3,0.8s-0.1,0.2-0.5,0.2H4.2c0,0-0.1,0.1-0.1,0.2c1.7,0.7,2.5,1.3,2.5,2c0,0.3-0.2,0.5-0.4,0.5
		c-0.3,0-0.4-0.2-0.7-0.6c-0.3-0.4-0.9-1.1-1.6-1.6c-1,1.7-2.1,2.8-3.4,3.8l-0.2-0.3c1.4-1.3,2.1-2.5,2.7-3.8
		c0.2-0.4,0.3-0.7,0.3-1.1L3.5,16.8z M3.4,24.2v-1.7H2.5l-1,0.1l-0.2-0.7L2.5,22h0.9v-0.6c0-0.6,0-0.9-0.2-1.3L3.3,20
		c1.3,0.2,1.5,0.3,1.5,0.5c0,0.1-0.1,0.2-0.6,0.4v1h0.8l0.5-0.6h0.2l0.8,0.7v0.4H4.3v1.7h1l0.5-0.6H6l0.8,0.8v0.4H2l-1,0.1l-0.2-0.7
		L2,24.2H3.4z M5,26l0.4-0.5h0.2c0.7,0.5,0.8,0.6,0.8,0.7c0,0.1-0.1,0.2-0.4,0.4v1.5l0.1,2l-0.2,0.1l-0.8,0v-0.8H2.5v0.7l-0.1,0.2
		l-0.8,0l0.1-2.2v-1.4c0-0.6,0-0.9-0.2-1.3l0.1-0.1C2,25.6,2.3,25.8,2.7,26H5z M2.5,26.5v2.6h2.6v-2.6H2.5z M12.8,26.9h-1.9v0.3
		l0.1,3l-0.2,0.2l-0.8,0l0.1-3v-0.5H8.2v3.6L8,30.6l-0.8,0l0.1-2.8v-5.3c0-0.7-0.1-1-0.2-1.5L7.2,21c0.4,0.2,0.8,0.4,1.2,0.6H10V20
		H8L7,20.1l-0.2-0.7L8,19.5h2v-1.3c0-0.5,0-0.8-0.2-1.2l0.1-0.1c1.2,0.2,1.5,0.3,1.5,0.6c0,0.1-0.1,0.2-0.6,0.4v1.7H13l0.6-0.8h0.2
		l0.9,1V20h-3.8v1.6h1.8l0.4-0.5h0.2c0.7,0.6,0.9,0.7,0.9,0.9c0,0.1-0.1,0.2-0.5,0.4v4l0.1,3.1c0,0.9-0.3,1.3-1.4,1.3
		c0-0.5-0.2-0.7-0.9-1l0.1-0.3c0.6,0.1,0.8,0.1,1.1,0.1c0.3,0,0.3-0.1,0.3-0.4V26.9z M10,24v-1.8H8.2V24H10z M10,26.4v-2H8.2v2H10z
		 M12.8,24v-1.8h-1.9V24H12.8z M12.8,26.4v-2h-1.9v2H12.8z M11.9,17c1.2,0.4,1.5,1,1.5,1.5c0,0.3-0.2,0.5-0.5,0.5
		c-0.2,0-0.3-0.1-0.5-0.5c-0.2-0.4-0.5-0.9-0.8-1.2L11.9,17z"/>
	<path d="M8.1,45c2.6-0.9,4.4-2.5,4.4-5.1c0-2.3-1.9-4-4.5-4c-0.3,0-0.7,0-1.1,0.1c0.3,0.2,0.5,0.5,0.7,0.7c0.2,0.2,0.3,0.4,0.3,0.6
		c0,0.2-0.1,0.3-0.2,0.5c-0.1,0.1-0.1,0.3-0.3,0.5c-0.8,1.4-1.6,3-2.5,4.7c-0.7,1.2-1.1,1.6-1.6,1.6c-0.3,0-0.8-0.3-1.3-1
		c-0.4-0.6-0.6-1.4-0.6-2.4c0-3.3,3-5.9,6.6-5.9c3.6,0,5.7,2.1,5.7,4.7c0,2.8-2.4,4.9-5.4,5.4L8.1,45z M4.1,42.5
		C5,41,5.9,39.3,6.6,37.8c0.2-0.3,0.2-0.5,0.2-0.7s-0.1-0.5-0.4-1c-2.3,0.6-4.2,2.5-4.2,5c0,0.9,0.3,1.5,0.5,1.9
		c0.2,0.3,0.4,0.4,0.6,0.4C3.5,43.4,3.7,43.2,4.1,42.5z"/>
	<path d="M3.1,58.6c0.3,0.9,0.8,1.5,1.6,1.9c0.7,0.4,1.5,0.5,2.7,0.5c1.1,0,1.9-0.1,2.6-0.2c0.1,0,0.3-0.1,0.5-0.1
		c0.2,0,0.3-0.1,0.4-0.1c0.6,0,1.1,0.3,1.1,0.6c0,0.2-0.2,0.4-0.5,0.5c-0.6,0.2-2,0.3-3.4,0.3c-1.6,0-2.8-0.2-3.8-0.8
		c-0.9-0.5-1.4-1.3-1.6-2.4L3.1,58.6z M4.3,51.2c0.2,0.2,0.3,0.4,0.6,0.5c0.3,0.2,0.9,0.3,1.7,0.3c0.6,0,1.2,0,1.7-0.1
		c0.2,0,0.4-0.1,0.6-0.1c0.2,0,0.4-0.1,0.5-0.1c0.2,0,0.5,0,0.8,0.2c0.3,0.1,0.6,0.4,0.6,0.6c0,0.2-0.2,0.4-0.6,0.5
		c-0.6,0.1-0.9,0.2-1.4,0.5c-0.7,0.5-1.4,1-2.1,1.5l-0.3-0.3C7,54,7.4,53.6,8.2,52.9c0.1-0.1,0.1-0.1,0.1-0.1c0,0,0,0-0.1,0
		c-0.5,0.1-0.9,0.1-1.4,0.1c-1.3,0-1.9-0.2-2.3-0.6c-0.3-0.3-0.5-0.5-0.5-0.8L4.3,51.2z M10.8,50.4c1.7,0.6,2.3,1.2,2.3,1.7
		c0,0.3-0.2,0.5-0.5,0.5c-0.3,0-0.4-0.1-0.7-0.7c-0.3-0.5-0.8-0.9-1.3-1.3L10.8,50.4z M12.1,49.3c1.8,0.4,2.5,1,2.5,1.5
		c0,0.3-0.2,0.5-0.5,0.5c-0.2,0-0.3-0.1-0.7-0.6c-0.4-0.5-0.9-0.8-1.4-1.1L12.1,49.3z"/>
	<path d="M14,75.1H8.2c1.5,1.6,3.5,2.4,6.3,2.9l-0.1,0.3c-0.5,0-0.8,0.3-0.9,0.7c-2.5-0.7-4.2-1.9-5.6-3.8L8,79.4l-0.2,0.1l-0.9,0
		l0.1-3.8c-1.7,1.7-3.6,2.7-6.3,3.3l-0.2-0.3C3,78,5.1,76.8,6.5,75.1H2.3l-1,0.1l-0.2-0.7l1.2,0.1H7v-0.2c0-0.5,0-0.8-0.2-1.2
		l0.1-0.1c1.2,0.2,1.6,0.3,1.6,0.5c0,0.2-0.1,0.2-0.6,0.4v0.6h4.2l0.7-0.8H13l1,1V75.1z M2.5,67.7c0,0.9-0.4,1.5-1.1,1.5
		c-0.3,0-0.6-0.2-0.6-0.5c0-0.2,0.1-0.3,0.4-0.7c0.5-0.4,0.7-0.9,0.7-1.6l0.4,0c0,0.2,0.1,0.5,0.1,0.8H7V67c0-0.5-0.1-0.8-0.2-1.2
		l0.1-0.1c1.5,0.2,1.8,0.3,1.8,0.5c0,0.2-0.1,0.2-0.7,0.4v0.6h4.2l0.5-0.6h0.2c0.9,0.7,1.1,0.9,1.1,1.1c0,0.2-0.2,0.3-0.8,0.4
		c-0.5,0.4-0.9,0.7-1.3,1l-0.2-0.2c0.2-0.4,0.5-0.8,0.6-1.1H2.5z M13.9,70h-3.4c-0.2,0.3-0.4,0.5-0.6,0.7c-0.3,0.4-0.7,0.8-1.2,1.1
		c0.9,0.2,1.6,0.5,2.2,0.7c0.8,0.4,1.3,0.7,1.3,1c0,0.3-0.2,0.4-0.4,0.4c-0.2,0-0.4-0.1-1.1-0.5C10,73,9.1,72.7,8.1,72.3
		c-1.7,1-3.8,1.5-6.3,1.7l-0.1-0.3c2.1-0.3,3.9-0.8,5.4-1.6c-0.7-0.2-1.4-0.4-2.2-0.5c-0.2,0.2-0.3,0.3-0.5,0.5l-0.2,0l-0.8-0.2
		C4,71.2,4.6,70.6,5.1,70H2.4l-1,0.1l-0.2-0.7l1.2,0.1h3.1c0.2-0.3,0.5-0.6,0.6-0.8c0.2-0.3,0.3-0.5,0.4-0.7l0.1,0
		c1,0.4,1.2,0.6,1.2,0.7c0,0.1-0.1,0.2-0.5,0.2H7.2c-0.2,0.2-0.4,0.5-0.5,0.7h5.5l0.6-0.8H13l0.9,0.9V70z M6.2,70
		c-0.3,0.4-0.6,0.7-0.9,1.1c0.8,0.1,1.7,0.3,2.5,0.5c0.6-0.4,1.2-0.9,1.6-1.5H6.2z"/>
	<path d="M2.6,85.4v10.3l-0.2,0.1l-0.9,0l0.1-3.9v-6.1c0-0.6-0.1-1-0.2-1.5l0.1-0.1c0.5,0.2,0.9,0.4,1.3,0.7h4c0-0.2,0-0.3,0-0.5
		v-0.9c0-0.6,0-0.9-0.2-1.3l0.1-0.1c1.4,0.2,1.7,0.4,1.7,0.6c0,0.2-0.2,0.3-0.6,0.4v1.8h4.3l0.5-0.6H13c0.8,0.6,1,0.8,1,1
		c0,0.1-0.1,0.3-0.6,0.4v6.2l0.1,2.6c0,0.9-0.7,1.3-2,1.3c0-0.6-0.4-0.8-1.5-1.1l0.1-0.3c1,0.2,1.7,0.2,2,0.2c0.3,0,0.4-0.1,0.4-0.4
		v-8.7H7.9c0,0.6-0.2,1.3-0.3,1.8c2.6,1.2,4.2,2.8,4.2,3.5c0,0.5-0.1,0.7-0.4,0.7c-0.3,0-0.4-0.1-0.8-0.7c-0.7-1.1-1.9-2.3-3.1-3.1
		c-0.7,1.7-2.1,2.9-4.3,3.9l-0.2-0.3c2.4-1.4,3.7-3,3.9-5.9H2.6z"/>
</g>
</svg>
