<?xml version="1.0" encoding="utf-8"?>
<!-- Generator: Adobe Illustrator 22.0.1, SVG Export Plug-In . SVG Version: 6.00 Build 0)  -->
<svg version="1.1" id="layer" xmlns="http://www.w3.org/2000/svg" xmlns:xlink="http://www.w3.org/1999/xlink" x="0px" y="0px"
	 width="15px" height="125px" viewBox="0 0 15 125" style="enable-background:new 0 0 15 125;" xml:space="preserve">
<g>
	<path d="M8.4,10.1c0.6,0.3,1.1,0.4,1.6,0.4c1.1,0,2.1-0.9,2.1-2.5c0-1.2-0.7-1.9-2.1-1.9c-1,0-2.6,0.5-4.3,1.5c0,0.6,0,1,0,1.4
		c0,0.4,0,0.7,0,1c0,0.6,0,1-0.3,1.4c-0.3,0.3-0.6,0.5-1,0.5c-0.2,0-0.2-0.1-0.4-0.2c-0.1-0.1-0.1-0.2-0.2-0.2
		C3.6,11.3,3,11.1,2.6,11c-0.5-0.1-0.7-0.4-0.7-0.7c0-0.8,1.6-2,3-2.8c0-1.1,0-2.2,0-3.3C4.2,4.4,3.7,4.4,3.3,4.4
		c-0.5,0-1-0.3-1.3-1l0.2-0.2C2.6,3.5,3,3.6,3.4,3.6c0.3,0,0.7-0.1,1.5-0.3c0-0.6,0-1.2,0-1.9c0-0.6-0.3-0.9-1-1l0-0.3
		C4.1,0,4.3,0,4.5,0c0.4,0,0.8,0.1,1.1,0.3C5.8,0.4,6,0.6,6,0.8C6,1,6,1.1,5.9,1.3c0,0.2-0.1,0.3-0.1,0.6c0,0.3-0.1,0.7-0.1,1.1
		c0.4-0.2,0.8-0.3,1.1-0.5s0.5-0.3,0.7-0.3c0.4,0,0.7,0.2,0.7,0.4S8.1,3,7.6,3.2C6.9,3.4,6.3,3.7,5.7,3.9c0,1.2,0,2.2,0,3.1
		C7.5,6,9,5.5,10.2,5.5c1.8,0,2.9,1.1,2.9,2.6c0,1.9-1.4,3.2-2.9,3.2c-0.8,0-1.4-0.3-2.1-0.8L8.4,10.1z M4.8,8.2c-1.1,0.7-2,1.5-2,2
		c0,0.2,0.2,0.3,0.6,0.5c0.3,0.1,0.7,0.2,0.9,0.2c0.3,0,0.5-0.2,0.5-1.2V8.2z M9.9,2C10.1,2,10.4,2,10.6,2c0.8,0,1.5,0.2,2.1,0.6
		c0.5,0.3,0.8,0.8,0.8,1.1c0,0.2-0.1,0.4-0.3,0.4c-0.1,0-0.2,0-0.3-0.1C12.8,4,12.7,4,12.6,4c-0.1,0-0.2,0-0.5,0.1
		c-0.2,0.1-0.5,0.2-1,0.4l-0.2-0.3c0.4-0.3,0.7-0.5,1-0.7C12,3.4,12,3.3,12,3.3c0-0.1,0-0.1-0.2-0.3c-0.4-0.3-1.1-0.6-2-0.6L9.9,2z"
		/>
	<path d="M7,18.1c1.3,0.5,1.6,0.7,1.6,0.9c0,0.1-0.1,0.2-0.4,0.2H8c1.8,1.9,3.8,3,6.5,3.6l0,0.3c-0.5,0-0.8,0.3-1,0.8
		c-2.3-1-4.3-2.3-6-4.6c-1.9,2.5-4.2,4-7,4.9l-0.2-0.3c2.6-1.2,4.6-2.8,5.9-4.6c0.3-0.5,0.5-0.7,0.6-1.1L7,18.1z M9.3,17.5H5.7v0
		l0,1.2l-0.1,0.1l-0.9,0l0-1.3v-0.1H2.1l-1,0.1l-0.2-0.7L2.1,17h2.7v-0.3c0-0.5,0-0.8-0.2-1.1l0.1-0.1c1.2,0.2,1.6,0.3,1.6,0.5
		c0,0.1-0.1,0.2-0.6,0.3V17h3.6v-0.3c0-0.5,0-0.8-0.1-1.1l0.1-0.1c1.3,0.2,1.6,0.3,1.6,0.5c0,0.1-0.1,0.2-0.6,0.3V17h2.2l0.7-0.9
		h0.2l1,1v0.4h-4.2v0l0,1.2l-0.1,0.1l-0.9,0L9.3,17.5L9.3,17.5z M4.7,25.2c1.2,0.5,1.4,0.7,1.4,0.9c0,0.1-0.1,0.2-0.5,0.2
		c-0.1,0-0.2,0-0.3,0c-1.1,1.2-2.2,2-3.6,2.6l-0.2-0.3C2.7,27.8,3.6,27,4.2,26c0.2-0.3,0.3-0.5,0.3-0.8L4.7,25.2z M7.1,24.4H4.2
		l-1.1,0.1L3,23.8l1.2,0.1h2.8v-1.2c0-0.5,0-0.8-0.2-1.2L7,21.5c1.3,0.2,1.7,0.3,1.7,0.6c0,0.2-0.1,0.2-0.6,0.4v1.5h2.2l0.7-0.8H11
		l1,0.9v0.4H8v2.4l0.1,2.4l-0.1,0.1l-1,0l0.1-2.5V24.4z M9.5,25.3c2.3,0.8,3.5,1.9,3.5,2.8c0,0.4-0.2,0.6-0.5,0.6
		c-0.3,0-0.4-0.2-0.9-0.9c-0.5-0.7-1.3-1.5-2.3-2.2L9.5,25.3z"/>
	<path d="M5.6,32.3c0.1,0,0.2,0,0.3,0c0.4,0,0.7,0.1,1,0.3c0.3,0.2,0.6,0.5,0.6,0.8c0,0.2-0.1,0.3-0.2,0.4c-0.1,0.1-0.3,0.3-0.3,0.5
		c-0.1,0.2-0.2,0.4-0.3,0.6c0.4-0.1,0.7-0.2,1-0.3c0.1,0,0.3-0.1,0.4-0.2c0.2-0.1,0.3-0.1,0.5-0.1c0.3,0,0.7,0.2,0.7,0.5
		c0,0.2-0.2,0.3-0.5,0.4c-0.7,0.2-1.6,0.4-2.6,0.6c-0.5,0.9-1.1,1.9-1.6,2.7l0,0c0.6-0.5,1.2-0.8,1.8-0.8c1.1,0,1.6,0.7,1.7,1.9
		c1.2-0.6,2.4-1.3,3.4-1.9c0.5-0.3,0.5-0.4,0.5-0.6c0-0.2-0.2-0.4-0.8-0.6l0.1-0.3h0.2c0.5,0,0.9,0.2,1.2,0.4
		c0.3,0.3,0.6,0.6,0.6,0.8c0,0.2-0.1,0.4-0.5,0.6c-0.3,0.1-0.6,0.3-0.9,0.4c-1.2,0.6-2.4,1.2-3.7,1.8c0,0.8,0,1.5,0,2.1
		C8.2,42.8,8,43,7.6,43c-0.3,0-0.4-0.2-0.4-0.6s0-1,0-1.7c-1.9,1-2.8,1.8-2.8,2.5c0,0.9,0.9,1.3,2.8,1.3c1.3,0,2.2-0.2,2.8-0.4
		c0.4-0.1,0.7-0.2,0.9-0.2c0.5,0,1,0.3,1,0.7c0,0.2-0.2,0.4-0.5,0.5c-0.7,0.2-2,0.3-3.7,0.3c-2.7,0-3.9-0.9-3.9-2.1s1.3-2.2,3.4-3.3
		c0-1.3-0.4-1.7-1-1.7c-0.5,0-1,0.3-1.6,0.7c-0.4,0.3-0.6,0.6-0.9,1c-0.2,0.2-0.4,0.5-0.6,0.5c-0.2,0-0.4-0.3-0.4-0.5
		c0-0.3,0.1-0.5,0.3-0.8c0.4-0.4,0.7-0.7,1-1.2c0.5-0.8,0.8-1.4,1.2-2.1c-0.4,0-0.7,0.1-0.9,0.1c-0.8,0-1.4-0.4-1.9-1.1l0.2-0.3
		c0.5,0.4,1.1,0.6,1.6,0.6c0.4,0,0.8,0,1.4-0.1c0.2-0.4,0.4-0.7,0.5-1.1c0.1-0.2,0.1-0.4,0.1-0.6c0-0.3-0.1-0.6-0.8-0.7L5.6,32.3z"
		/>
	<path d="M3.2,50.8l0.5-0.6h0.2c0.8,0.6,0.9,0.8,0.9,0.9c0,0.2-0.1,0.2-0.5,0.4V55l0.1,3.1l-0.1,0.2l-0.8,0v-0.7H1.9v1.1l-0.2,0.1
		l-0.8,0L1,55.1v-3.4c0-0.6-0.1-1-0.2-1.5l0.1-0.1c0.5,0.2,0.8,0.4,1.2,0.6H3.2z M1.9,51.4V57h1.5v-5.7H1.9z M11.5,50.4L11.5,50.4
		c0.1-0.2,0.3-0.3,0.4-0.5c0.2-0.3,0.3-0.6,0.4-0.9l0.1,0c1,0.6,1.2,0.8,1.2,0.9s-0.2,0.2-0.7,0.2c-0.6,0.7-1.1,1.4-1.8,2h1.7
		l0.6-0.8h0.2l0.9,0.9v0.4h-4c-0.7,0.6-1.5,1.2-2.3,1.7v0.3c1.2-0.3,2.3-0.7,3.1-1c0.2-0.1,0.4-0.2,0.6-0.4h0.1c0.9,0.6,1,0.7,1,0.9
		c0,0.1-0.1,0.2-0.3,0.2c-0.1,0-0.3,0-0.5-0.1c-1.4,0.4-2.6,0.7-4,0.9v0.4c0,0.5,0.1,0.6,2,0.6c2,0,2.4,0,2.6-0.3
		c0.2-0.2,0.3-0.6,0.5-1.1l0.4,0.1c0,0.4,0,0.8,0,0.9c0,0.1,0,0.2,0.2,0.3c0.2,0.1,0.3,0.2,0.3,0.3c0,0.2-0.2,0.3-0.4,0.4
		c-0.4,0.1-1.2,0.2-3.5,0.2c-2.6,0-2.9-0.2-2.9-1l0-0.7v-0.1c-0.9,0.5-1.8,0.9-2.8,1.3l-0.2-0.3c1-0.5,2-1,2.9-1.6
		c0-0.4,0-0.7-0.2-1l0.1-0.1c0.4,0.1,0.6,0.3,1,0.5c0.4-0.3,0.8-0.6,1.1-0.9H5.9l-1,0.1L4.6,52l1.2,0.1H8v-1.3H6.7l-1,0.1l-0.2-0.7
		l1.2,0.1H8v-0.5c0-0.5,0-0.8-0.2-1.2l0.1-0.1c1.3,0.2,1.7,0.3,1.7,0.5c0,0.2-0.2,0.3-0.6,0.3v0.9h1.1l0.5-0.6h0.2L11.5,50.4z
		 M12.2,61.8H7.7v0.6l-0.2,0.2l-0.8,0l0.1-2.2v-1.9c0-0.7-0.1-1.1-0.2-1.5l0.1-0.1c0.5,0.2,0.9,0.4,1.3,0.7h4.1l0.5-0.5h0.2
		c0.7,0.6,0.9,0.7,0.9,0.8c0,0.1-0.1,0.2-0.5,0.4v1.9l0.1,2.2l-0.2,0.2l-0.8,0V61.8z M12.2,59.3V58H7.7v1.3H12.2z M12.2,61.2v-1.4
		H7.7v1.4H12.2z M8.9,50.8v1.3h1c0.4-0.4,0.9-0.9,1.2-1.3H8.9z"/>
	<path d="M11.7,72.2c0.3-0.2,0.6-0.5,0.9-0.7c0.1-0.1,0.2-0.2,0.2-0.3c0-0.1,0-0.3-0.1-0.4c-0.3-0.4-0.5-0.5-0.8-0.5
		c-0.6,0-1.1,0.7-1.1,2.1c0,0.5,0.1,1,0.2,1.4c0.1,0.5,0.4,1.2,0.6,1.8c0.1,0.3,0.2,0.6,0.2,0.8c0,0.6-0.5,1.1-1.6,1.3
		c-1.1,0.3-2.4,0.5-3.8,0.5c-1.8,0-2.5-0.6-2.5-2c0-0.3,0-0.8,0.1-1.3c-0.4,0.6-0.8,0.8-1.2,0.8c-0.6,0-1.1-0.6-1.1-1.4
		c0-1.4,1.1-2.9,2.1-2.9c0.3,0,0.4,0,0.6,0.1c0.1-0.7,0.2-1.2,0.3-2.2c-0.2,0.1-0.4,0.1-0.6,0.1c-0.5,0.1-1,0.2-1.3,0.2
		c-0.5,0-0.9-0.2-1.4-1.1l0.2-0.2C2.2,68.9,2.5,69,2.8,69c0.3,0,0.7-0.1,1.2-0.2c0.3-0.1,0.6-0.1,0.9-0.2c0-0.3,0.1-0.5,0.1-0.7
		C5,67.6,5,67.2,5,67.1c0-0.4-0.1-0.7-1-0.9l0.1-0.3c0.1,0,0.2,0,0.2,0c0.6,0,1.1,0.2,1.4,0.4c0.3,0.2,0.6,0.4,0.6,0.6
		c0,0.2-0.1,0.3-0.2,0.4c-0.1,0.1-0.2,0.3-0.2,0.6c0,0.2,0,0.3-0.1,0.5c0.4-0.1,0.7-0.3,1.1-0.4c0.2-0.1,0.3-0.2,0.5-0.3
		c0.1-0.1,0.3-0.1,0.4-0.1c0.3,0,0.6,0.2,0.6,0.4c0,0.2-0.1,0.4-0.7,0.6c-0.6,0.2-1.2,0.4-2,0.7c-0.2,1.2-0.3,1.9-0.4,2.9
		c0.2,0.2,0.3,0.4,0.3,0.6c0,0.1,0,0.2-0.1,0.3c-0.1,0.2-0.2,0.4-0.4,0.8c-0.3,1.3-0.4,1.9-0.4,2.4c0,0.9,0.3,1.2,1.7,1.2
		c1.2,0,2.7-0.2,3.6-0.6c0.5-0.2,0.7-0.4,0.7-0.8c0-0.1,0-0.3-0.1-0.6c-0.1-0.5-0.2-1-0.3-1.5c-0.1-0.4-0.1-1-0.1-1.4
		c0-1.8,0.9-2.7,1.9-2.7c0.6,0,1.1,0.3,1.6,0.9c0.3,0.4,0.5,0.8,0.5,1.1c0,0.3-0.1,0.4-0.4,0.4c-0.1,0-0.2,0-0.3,0
		c-0.1,0-0.2,0-0.3,0c-0.2,0-0.5,0.1-1.2,0.4L11.7,72.2z M2.3,74.2c0,0.6,0.2,0.8,0.5,0.8c0.3,0,0.5-0.2,0.9-0.7
		C4,73.8,4.1,73.6,4.3,73c0.1-0.2,0.1-0.5,0.1-0.7C4.2,72.1,4,72,3.8,72C3.1,72,2.3,73.3,2.3,74.2z"/>
</g>
</svg>
