<?xml version="1.0" encoding="utf-8"?>
<!-- Generator: Adobe Illustrator 22.0.1, SVG Export Plug-In . SVG Version: 6.00 Build 0)  -->
<svg version="1.1" id="layer" xmlns="http://www.w3.org/2000/svg" xmlns:xlink="http://www.w3.org/1999/xlink" x="0px" y="0px"
	 width="15px" height="125px" viewBox="0 0 15 125" style="enable-background:new 0 0 15 125;" xml:space="preserve">
<g>
	<path d="M8.3,10.1c0.6,0.3,1.1,0.4,1.6,0.4c1.1,0,2.1-0.9,2.1-2.5c0-1.2-0.7-1.9-2.1-1.9c-1,0-2.6,0.5-4.3,1.5c0,0.6,0,1,0,1.4
		c0,0.4,0,0.7,0,1c0,0.6,0,1-0.3,1.4C5,11.8,4.7,12,4.4,12c-0.2,0-0.2-0.1-0.4-0.2c-0.1-0.1-0.1-0.2-0.2-0.2C3.5,11.3,3,11.1,2.5,11
		c-0.5-0.1-0.7-0.4-0.7-0.7c0-0.8,1.6-2,3-2.8c0-1.1,0-2.2,0-3.3C4.1,4.4,3.7,4.4,3.3,4.4c-0.5,0-1-0.3-1.3-1l0.2-0.2
		c0.4,0.4,0.7,0.5,1.1,0.5c0.3,0,0.7-0.1,1.5-0.3c0-0.6,0-1.2,0-1.9c0-0.6-0.3-0.9-1-1l0-0.3C4.1,0,4.2,0,4.4,0
		c0.4,0,0.8,0.1,1.1,0.3c0.3,0.1,0.4,0.4,0.4,0.6c0,0.1,0,0.3-0.1,0.4c0,0.2-0.1,0.3-0.1,0.6c0,0.3-0.1,0.7-0.1,1.1
		c0.4-0.2,0.8-0.3,1.1-0.5s0.5-0.3,0.7-0.3c0.4,0,0.7,0.2,0.7,0.4S8,3,7.5,3.2C6.9,3.4,6.2,3.7,5.6,3.9c0,1.2,0,2.2,0,3.1
		C7.4,6,9,5.5,10.2,5.5c1.8,0,2.9,1.1,2.9,2.6c0,1.9-1.4,3.2-2.9,3.2c-0.8,0-1.4-0.3-2.1-0.8L8.3,10.1z M4.8,8.2c-1.1,0.7-2,1.5-2,2
		c0,0.2,0.2,0.3,0.6,0.5c0.3,0.1,0.7,0.2,0.9,0.2c0.3,0,0.5-0.2,0.5-1.2V8.2z M9.8,2C10.1,2,10.3,2,10.5,2c0.8,0,1.5,0.2,2.1,0.6
		c0.5,0.3,0.8,0.8,0.8,1.1c0,0.2-0.1,0.4-0.3,0.4c-0.1,0-0.2,0-0.3-0.1C12.7,4,12.6,4,12.5,4c-0.1,0-0.2,0-0.5,0.1
		c-0.2,0.1-0.5,0.2-1,0.4l-0.2-0.3c0.4-0.3,0.7-0.5,1-0.7C11.9,3.4,12,3.3,12,3.3c0-0.1,0-0.1-0.2-0.3c-0.4-0.3-1.1-0.6-2-0.6L9.8,2
		z"/>
	<path d="M5.4,20.9H2.3v8.5l-0.1,0.2l-0.9,0l0.1-3.9v-8.2c0-0.7-0.1-1-0.2-1.5l0.1-0.1c0.5,0.2,0.9,0.4,1.3,0.6h2.8l0.5-0.5h0.2
		c0.8,0.6,0.9,0.7,0.9,0.9c0,0.1-0.1,0.2-0.5,0.4v2.3l0.1,2l-0.1,0.1l-0.8,0V20.9z M5.4,18.3v-1.4H2.3v1.4H5.4z M5.4,20.4v-1.5H2.3
		v1.5H5.4z M9.3,26.7H5.5v0.8l-0.2,0.2l-0.8,0l0.1-2.6v-1c0-0.7,0-1-0.1-1.5l0.1-0.1c0.5,0.2,0.8,0.4,1.2,0.6h3.4l0.5-0.5h0.2
		c0.6,0.5,0.9,0.7,0.9,0.8c0,0.1-0.1,0.2-0.5,0.4v1.4l0.1,2.3l-0.1,0.2l-0.9,0V26.7z M9.3,26.2v-2.6H5.5v2.6H9.3z M12.7,20.9H9.4
		v0.5l-0.2,0.2l-0.8,0l0.1-2v-2.2c0-0.7,0-1-0.2-1.5l0.1-0.1c0.5,0.2,0.9,0.4,1.3,0.6h2.9l0.5-0.6h0.2c0.7,0.5,1,0.8,1,0.9
		c0,0.2-0.1,0.2-0.5,0.4v7.4l0,3.5c0,1.1-0.6,1.5-2,1.5c0-0.5-0.3-0.7-1.1-1l0-0.4c0.8,0.1,1.4,0.2,1.7,0.2c0.2,0,0.3-0.1,0.3-0.5
		V20.9z M12.7,18.3v-1.4H9.4v1.4H12.7z M12.7,18.9H9.4v1.5h3.3V18.9z"/>
	<path d="M1.4,34.1c0.5,0.2,0.9,0.5,1.1,0.7c0.4,0.3,0.6,0.7,0.6,1.2c0,0.1,0,0.3,0,0.5C3,37,2.9,37.5,2.9,38.3c0,1,0,1.8,0.2,2.5
		c0.2,0.5,0.4,1,0.8,1.4c0.1,0.2,0.3,0.2,0.3,0.2c0.1,0,0.1,0,0.2-0.2c0.1-0.3,0.4-0.6,0.8-1.3c0.5-0.7,0.8-1.1,1.4-1.8L7,39.4
		c-0.4,0.6-0.9,1.3-1.2,1.9c-0.3,0.5-0.5,1-0.6,1.3c-0.1,0.2-0.1,0.4-0.1,0.5s0,0.2,0.1,0.4c0,0.1,0.1,0.2,0.1,0.3
		c0,0.2-0.1,0.3-0.4,0.3c-0.5,0-1.1-0.5-1.7-1.2c-0.4-0.5-0.7-1.1-0.9-1.8c-0.2-0.6-0.2-1.3-0.2-2.2c0-0.6,0-1.2,0-1.6v-0.9
		c0-1-0.1-1.3-0.9-2.1L1.4,34.1z M9.9,36.5c2,0.2,3.4,1.3,3.9,3c0.1,0.4,0.2,0.7,0.2,0.9c0,0.5-0.3,0.8-0.7,0.8
		c-0.4,0-0.5-0.2-0.6-1.1c-0.3-1.8-1.2-2.9-2.8-3.4L9.9,36.5z"/>
	<path d="M6.9,48.5c1.3,0.5,1.7,0.7,1.7,0.9c0,0.1-0.1,0.2-0.3,0.2c-0.1,0-0.3,0-0.4,0c1.6,2.1,3.9,3.5,6.8,4.3l-0.1,0.3
		c-0.5,0-0.9,0.3-1.1,0.8c-2.4-1.2-4.4-2.8-6-5.2c-0.6,0.9-1.4,1.8-2.2,2.5c-0.9,0.9-2,1.6-3.2,2.2c-0.5,0.3-1.1,0.5-1.6,0.7L0.3,55
		c2.5-1.3,4.6-3.1,5.9-5.2c0.3-0.5,0.4-0.8,0.5-1.3L6.9,48.5z M10.2,56.9l0.5-0.6h0.2c0.9,0.6,1.1,0.8,1.1,1c0,0.2-0.2,0.3-0.6,0.4
		v2l0.1,2.7l-0.1,0.2l-0.9,0v-0.9h-6v0.8l-0.1,0.2l-0.9,0l0.1-2.7v-2c0-0.6-0.1-1-0.2-1.5l0.1-0.1c0.5,0.2,0.9,0.4,1.3,0.7H10.2z
		 M10.9,54.7H5.2l-1,0.1l-0.2-0.7l1.2,0.1h3.8l0.7-0.8h0.2l1,1V54.7z M4.4,57.4V61h6v-3.7H4.4z"/>
	<path d="M8.2,77.3c2.8-1,4.6-2.7,4.6-5c0-1.4-1-2.5-2.5-2.5c-0.8,0-1.6,0.2-2.5,0.7c-0.8,0.4-1.7,1.1-2.6,2c0,0.3,0,0.7,0,1
		c0,0.8,0,1.6,0.1,2.4c0,0.3,0,0.5,0,0.8c0,0.4-0.1,0.7-0.2,0.9c-0.1,0.3-0.3,0.6-0.6,0.6c-0.3,0-0.4-0.3-0.5-0.6
		c-0.1-0.4-0.2-0.6-0.4-0.9c-0.3-0.4-0.6-0.8-1-1.2c-0.1,0.2-0.2,0.3-0.3,0.5c-0.3,0.5-0.4,0.6-0.6,0.6c-0.2,0-0.4-0.2-0.4-0.5
		c0-0.2,0-0.3,0.3-0.7c0.7-0.9,1.4-1.8,2.1-2.9c0.3-0.5,0.5-0.8,0.7-1.3c0-0.4,0-0.8,0-1.1c0,0-0.1-0.1-0.1-0.1
		c-0.2,0-0.8,0.2-1.4,0.5c-0.6,0.3-1,0.6-1.4,0.9l-0.2-0.3C1.6,70.4,2,70,2.6,69.6c0.5-0.3,1.3-0.7,1.8-0.8c0-0.5,0-0.8,0-1.1v-0.5
		c0-0.3-0.1-0.6-0.2-0.7c-0.1-0.2-0.4-0.3-0.7-0.3l0-0.3c0.2-0.1,0.5-0.1,0.7-0.1c0.4,0,0.7,0.1,1,0.3s0.3,0.4,0.3,0.5
		c0,0.1,0,0.3-0.1,0.4c-0.1,0.2-0.1,0.4-0.1,0.7c0,0.3-0.1,0.7-0.1,1.2c0.1,0,0.1,0.1,0.2,0.1c0.2,0.2,0.3,0.4,0.3,0.6
		c0,0.2-0.1,0.3-0.1,0.5c-0.1,0.3-0.3,0.6-0.4,1l0,0.5c0.8-0.6,1.5-1.2,2.3-1.6c1-0.5,2-0.8,3-0.8c2.1,0,3.5,1.4,3.5,3.3
		c0,2.6-2.2,4.5-5.5,5.2L8.2,77.3z M4.4,72.9c-0.5,0.7-1.1,1.4-1.6,2.1c0.4,0.3,0.8,0.7,1.2,1.1c0.1,0.1,0.2,0.2,0.3,0.2
		c0.1,0,0.1-0.1,0.1-0.3V72.9z"/>
	<path d="M4.6,85.5c0-0.5,0-0.7-0.2-0.9c-0.2-0.2-0.4-0.3-0.8-0.4l0.1-0.3c0.2,0,0.3,0,0.5,0c0.5,0,0.9,0.2,1.2,0.5
		c0.3,0.2,0.3,0.4,0.3,0.6c0,0.1,0,0.2-0.1,0.4c-0.1,0.2-0.1,0.3-0.1,0.6c0,0.5,0,1,0,1.5c0.6-0.1,1.2-0.3,1.9-0.4
		c0.7-0.2,1.4-0.3,2.1-0.5c0.1-0.8,0.1-1.6,0.1-2.3v-0.6c0-0.5-0.3-0.8-0.9-1l0-0.3c0.2,0,0.3,0,0.5,0c0.4,0,0.8,0.1,1.1,0.3
		c0.3,0.2,0.5,0.4,0.5,0.6c0,0.1,0,0.2-0.1,0.4c-0.1,0.2-0.1,0.3-0.1,0.7c0,0.5-0.1,1.2-0.2,2c0.3-0.1,0.6-0.1,0.9-0.2
		c0.5-0.1,0.6-0.2,0.9-0.3c0.2-0.1,0.3-0.1,0.4-0.1c0.1,0,0.3,0,0.7,0.3c0.4,0.2,0.5,0.4,0.5,0.5s-0.1,0.3-0.4,0.3
		c-0.8,0-1.3,0-2,0.1c-0.3,0-0.7,0.1-1,0.2c-0.1,0.8-0.1,1.6-0.3,2.4c-0.1,0.9-0.3,1.2-0.7,1.4C8.9,90.9,8.6,91,8.3,91
		C8.1,91,8,90.9,8,90.7c-0.1-0.2-0.3-0.4-1-0.7l0.1-0.3c0.7,0.2,1.1,0.2,1.4,0.2c0.4,0,0.6-0.2,0.7-0.7c0.1-0.7,0.2-1.4,0.2-2.1
		c-0.6,0.1-1.3,0.3-2,0.4c-0.7,0.2-1.3,0.3-2,0.5c0,1.2-0.1,2.2-0.1,2.9c0,0.9,0.1,1.3,0.6,1.5c0.5,0.3,1.1,0.4,1.7,0.4
		c0.8,0,1.4-0.1,2.1-0.2c0.2,0,0.4-0.1,0.6-0.2c0.2-0.1,0.4-0.1,0.6-0.1c0.2,0,0.4,0,0.7,0.2c0.2,0.1,0.3,0.3,0.3,0.5
		c0,0.2-0.1,0.4-0.6,0.5c-0.6,0.2-1.9,0.3-3.1,0.3c-1.1,0-1.9-0.2-2.6-0.5c-0.7-0.4-1-1.1-1-2.2c0-0.7,0-1.6,0-2.8
		c-0.3,0.1-0.7,0.2-1,0.3c-0.4,0.1-0.6,0.2-0.8,0.4c-0.2,0.1-0.4,0.2-0.5,0.2c-0.2,0-0.4-0.1-0.7-0.4c-0.2-0.2-0.5-0.5-0.7-0.9
		l0.2-0.3C1.7,87.9,1.9,88,2.2,88c0.2,0,0.5,0,1-0.2c0.4-0.1,0.9-0.2,1.4-0.4V85.5z"/>
</g>
</svg>
