<?xml version="1.0" encoding="utf-8"?>
<!-- Generator: Adobe Illustrator 22.0.1, SVG Export Plug-In . SVG Version: 6.00 Build 0)  -->
<svg version="1.1" id="layer" xmlns="http://www.w3.org/2000/svg" xmlns:xlink="http://www.w3.org/1999/xlink" x="0px" y="0px"
	 width="15px" height="125px" viewBox="0 0 15 125" style="enable-background:new 0 0 15 125;" xml:space="preserve">
<g>
	<path d="M8.2,5.2H6.5C6.4,6.9,5.4,8.1,3.2,8.6L3,8.3c1.7-0.6,2.5-1.7,2.6-3.1H2.7v8.5l-0.1,0.2l-0.9,0l0.1-2.7V5.7
		c0-0.7-0.1-1-0.2-1.5l0.1-0.1c0.5,0.2,0.9,0.4,1.3,0.7h2.7c-0.2,0-0.3-0.2-0.4-0.6c-0.1-0.5-0.5-1.1-1-1.6l0.2-0.2H2.1L1,2.4
		L0.9,1.7l1.2,0.1H7V1.3c0-0.5,0-0.8-0.2-1.2l0.1-0.1c1.4,0.2,1.7,0.3,1.7,0.5C8.6,0.8,8.4,0.8,8,1v0.9h4.2L13,0.9h0.2l1,1.1v0.4
		H9.8c1,0.4,1.2,0.6,1.2,0.8c0,0.1-0.1,0.2-0.5,0.2h-0.2c-0.4,0.6-0.8,1-1.2,1.4h3.2l0.5-0.6H13c0.8,0.6,0.9,0.7,0.9,0.9
		c0,0.1-0.1,0.2-0.5,0.4v5.1l0.1,2c0,0.9-0.5,1.3-1.9,1.3c0-0.5-0.2-0.7-1.2-1l0.1-0.3c0.9,0.1,1.3,0.2,1.7,0.2
		c0.3,0,0.4-0.1,0.4-0.4V5.2H9.1v1.7c0,0.4,0.1,0.5,0.7,0.5c0.6,0,0.9,0,1.1-0.2c0.2-0.2,0.3-0.5,0.5-1.3l0.4,0.1c0,0.7,0,0.9,0,1
		s0,0.2,0.2,0.3c0.2,0.1,0.2,0.2,0.2,0.3c0,0.2-0.1,0.3-0.4,0.4c-0.4,0.1-1.1,0.2-2,0.2c-1.3,0-1.6-0.2-1.6-1l0-1V5.2z M4.5,2.3
		c1.1,0.6,1.8,1.2,1.8,1.8c0,0.3-0.2,0.5-0.4,0.6h2.8C9,4.2,9.2,3.7,9.4,3.1c0.1-0.3,0.2-0.5,0.2-0.8H4.5z M9.3,11.9H5.7v0.6
		l-0.2,0.2l-0.8,0L4.8,11V9.5c0-0.4,0-0.7-0.2-1.1l0.1-0.1C5.2,8.5,5.5,8.7,5.9,9h3.3l0.5-0.5h0.2c0.7,0.6,0.9,0.7,0.9,0.9
		c0,0.1-0.1,0.2-0.5,0.4v1.3l0.1,1.3l-0.1,0.2l-0.8,0V11.9z M9.3,11.4V9.5H5.7v1.9H9.3z"/>
	<path d="M5.4,24.1l0.5-0.6h0.2c0.8,0.6,1,0.8,1,0.9c0,0.1-0.1,0.2-0.5,0.4V27l0.1,2.8l-0.2,0.2l-0.9,0V29H2.4v0.9l-0.1,0.2l-0.9,0
		l0.1-3v-2c0-0.6-0.1-1-0.2-1.5l0.1-0.1c0.5,0.2,0.8,0.4,1.2,0.6H5.4z M2.4,24.6v3.9h3.2v-3.9H2.4z M10,21.9H5.2v0.7L5,22.7l-0.9,0
		l0.1-2.6v-1.6c0-0.7-0.1-1-0.2-1.5L4.1,17c0.5,0.2,0.9,0.4,1.3,0.7h4.5l0.5-0.6h0.2c0.8,0.6,1,0.8,1,1c0,0.1-0.1,0.3-0.5,0.4v1.4
		l0.1,2.6l-0.1,0.1l-0.9,0V21.9z M10,21.4v-3.3H5.2v3.3H10z M12.6,24.1l0.5-0.6h0.2c0.8,0.6,1,0.8,1,0.9c0,0.1-0.1,0.2-0.5,0.4V27
		l0.1,2.8l-0.2,0.2l-0.9,0V29H9.3v0.9l-0.2,0.2l-0.9,0l0.1-3v-2c0-0.6-0.1-1-0.2-1.5l0.1-0.1c0.5,0.2,0.8,0.4,1.2,0.6H12.6z
		 M9.3,24.6v3.9h3.4v-3.9H9.3z"/>
	<path d="M8.1,45c2.6-0.9,4.4-2.5,4.4-5.1c0-2.3-1.9-4-4.5-4c-0.3,0-0.7,0-1.1,0.1c0.3,0.2,0.5,0.5,0.7,0.7c0.2,0.2,0.3,0.4,0.3,0.6
		c0,0.2-0.1,0.3-0.2,0.5c-0.1,0.1-0.1,0.3-0.3,0.5c-0.8,1.4-1.6,3-2.5,4.7c-0.7,1.2-1.1,1.6-1.6,1.6c-0.3,0-0.8-0.3-1.3-1
		c-0.4-0.6-0.6-1.4-0.6-2.4c0-3.3,3-5.9,6.6-5.9c3.6,0,5.7,2.1,5.7,4.7c0,2.8-2.4,4.9-5.4,5.4L8.1,45z M4.2,42.5
		C5,41,5.9,39.3,6.6,37.8c0.2-0.3,0.2-0.5,0.2-0.7s-0.1-0.5-0.4-1c-2.3,0.6-4.2,2.5-4.2,5c0,0.9,0.3,1.5,0.5,1.9
		c0.2,0.3,0.4,0.4,0.6,0.4C3.6,43.4,3.8,43.2,4.2,42.5z"/>
	<path d="M3.1,58.6c0.3,0.9,0.8,1.5,1.6,1.9c0.7,0.4,1.5,0.5,2.7,0.5c1.1,0,1.9-0.1,2.6-0.2c0.1,0,0.3-0.1,0.5-0.1
		c0.2,0,0.3-0.1,0.4-0.1c0.6,0,1.1,0.3,1.1,0.6c0,0.2-0.2,0.4-0.5,0.5c-0.6,0.2-2,0.3-3.4,0.3c-1.6,0-2.8-0.2-3.8-0.8
		c-0.9-0.5-1.4-1.3-1.6-2.4L3.1,58.6z M4.3,51.2c0.2,0.2,0.3,0.4,0.6,0.5c0.3,0.2,0.9,0.3,1.7,0.3c0.6,0,1.2,0,1.7-0.1
		c0.2,0,0.4-0.1,0.6-0.1c0.2,0,0.4-0.1,0.5-0.1c0.2,0,0.5,0,0.8,0.2c0.3,0.1,0.6,0.4,0.6,0.6c0,0.2-0.2,0.4-0.6,0.5
		c-0.6,0.1-0.9,0.2-1.4,0.5c-0.7,0.5-1.4,1-2.1,1.5l-0.3-0.3C7,54,7.5,53.6,8.3,52.9c0.1-0.1,0.1-0.1,0.1-0.1c0,0,0,0-0.1,0
		c-0.5,0.1-0.9,0.1-1.4,0.1c-1.3,0-1.9-0.2-2.3-0.6c-0.3-0.3-0.5-0.5-0.5-0.8L4.3,51.2z M10.9,50.4c1.7,0.6,2.3,1.2,2.3,1.7
		c0,0.3-0.2,0.5-0.5,0.5c-0.3,0-0.4-0.1-0.7-0.7c-0.3-0.5-0.8-0.9-1.3-1.3L10.9,50.4z M12.1,49.3c1.8,0.4,2.5,1,2.5,1.5
		c0,0.3-0.2,0.5-0.5,0.5c-0.2,0-0.3-0.1-0.7-0.6c-0.4-0.5-0.9-0.8-1.4-1.1L12.1,49.3z"/>
	<path d="M14,75.1H8.3c1.5,1.6,3.5,2.4,6.3,2.9l-0.1,0.3c-0.5,0-0.8,0.3-0.9,0.7c-2.5-0.7-4.2-1.9-5.6-3.8L8,79.4l-0.2,0.1l-0.9,0
		l0.1-3.8c-1.7,1.7-3.6,2.7-6.3,3.3l-0.2-0.3c2.4-0.8,4.5-2.1,5.9-3.8H2.3l-1,0.1l-0.2-0.7l1.2,0.1H7v-0.2c0-0.5,0-0.8-0.2-1.2
		l0.1-0.1c1.2,0.2,1.6,0.3,1.6,0.5c0,0.2-0.1,0.2-0.6,0.4v0.6h4.2l0.7-0.8H13l1,1V75.1z M2.5,67.7c0,0.9-0.4,1.5-1.1,1.5
		c-0.3,0-0.6-0.2-0.6-0.5c0-0.2,0.1-0.3,0.4-0.7C1.7,67.7,2,67.2,2,66.4l0.4,0c0,0.2,0.1,0.5,0.1,0.8H7V67c0-0.5-0.1-0.8-0.2-1.2
		l0.1-0.1c1.5,0.2,1.8,0.3,1.8,0.5c0,0.2-0.1,0.2-0.7,0.4v0.6h4.2l0.5-0.6h0.2c0.9,0.7,1.1,0.9,1.1,1.1c0,0.2-0.2,0.3-0.8,0.4
		c-0.5,0.4-0.9,0.7-1.3,1l-0.2-0.2c0.2-0.4,0.5-0.8,0.6-1.1H2.5z M13.9,70h-3.4c-0.2,0.3-0.4,0.5-0.6,0.7c-0.3,0.4-0.7,0.8-1.2,1.1
		c0.9,0.2,1.6,0.5,2.2,0.7c0.8,0.4,1.3,0.7,1.3,1c0,0.3-0.2,0.4-0.4,0.4c-0.2,0-0.4-0.1-1.1-0.5C10,73,9.1,72.7,8.1,72.3
		c-1.7,1-3.8,1.5-6.3,1.7l-0.1-0.3c2.1-0.3,3.9-0.8,5.4-1.6c-0.7-0.2-1.4-0.4-2.2-0.5c-0.2,0.2-0.3,0.3-0.5,0.5l-0.2,0l-0.8-0.2
		c0.7-0.6,1.2-1.2,1.7-1.8H2.4l-1,0.1l-0.2-0.7l1.2,0.1h3.1c0.2-0.3,0.5-0.6,0.6-0.8c0.2-0.3,0.3-0.5,0.4-0.7l0.1,0
		c1,0.4,1.2,0.6,1.2,0.7c0,0.1-0.1,0.2-0.5,0.2H7.2c-0.2,0.2-0.4,0.5-0.5,0.7h5.5l0.6-0.8H13l0.9,0.9V70z M6.3,70
		c-0.3,0.4-0.6,0.7-0.9,1.1c0.8,0.1,1.7,0.3,2.5,0.5C8.4,71.1,9,70.6,9.4,70H6.3z"/>
	<path d="M2.7,85.7V96l-0.2,0.1l-0.9,0l0.1-3.9v-6.1c0-0.6-0.1-1-0.2-1.5l0.1-0.1c0.5,0.2,0.9,0.4,1.3,0.7h4c0-0.2,0-0.3,0-0.5v-0.9
		c0-0.6,0-0.9-0.2-1.3l0.1-0.1c1.4,0.2,1.7,0.4,1.7,0.6c0,0.2-0.2,0.3-0.6,0.4v1.8h4.3l0.5-0.6H13c0.8,0.6,1,0.8,1,1
		c0,0.1-0.1,0.3-0.6,0.4v6.2l0.1,2.6c0,0.9-0.7,1.3-2,1.3c0-0.6-0.4-0.8-1.5-1.1l0.1-0.3c1,0.2,1.7,0.2,2,0.2c0.3,0,0.4-0.1,0.4-0.4
		v-8.7H7.9c0,0.6-0.2,1.3-0.3,1.8c2.6,1.2,4.2,2.8,4.2,3.5c0,0.5-0.1,0.7-0.4,0.7c-0.3,0-0.4-0.1-0.8-0.7c-0.7-1.1-1.9-2.3-3.1-3.1
		c-0.7,1.7-2.1,2.9-4.3,3.9L3,91.6c2.4-1.4,3.7-3,3.9-5.9H2.7z"/>
</g>
</svg>
